#usda 1.0
(
    customLayerData = {
        string layout = "Each run is offset along Y by its zero-based run index; local positions unchanged."
        string sampling = "Frame 1 is t=0; 30 fps. Recorded animation, no USD physics."
        string source = "Robot Reel / recorded Genesis and Newton CUDA ballistic flight"
    }
    defaultPrim = "World"
    endTimeCode = 61
    framesPerSecond = 30
    metersPerUnit = 1
    startTimeCode = 1
    timeCodesPerSecond = 30
    upAxis = "Z"
)

def Xform "World"
{
    def Xform "genesis_1"
    {
        double3 xformOp:translate = (0, 0, 0)
        uniform token[] xformOpOrder = ["xformOp:translate"]

        def Sphere "projectile"
        {
            double radius = 0.1
            custom double3 reel:velocity
            double3 reel:velocity.timeSamples = {
                1: (2, 0, 10),
                2: (2, 0, 9.67300033569336),
                3: (2, 0, 9.346000671386719),
                4: (2, 0, 9.019001007080078),
                5: (2, 0, 8.692001342773438),
                6: (2, 0, 8.365001678466797),
                7: (2, 0, 8.038002014160156),
                8: (2, 0, 7.711001873016357),
                9: (2, 0, 7.384001731872559),
                10: (2, 0, 7.05700159072876),
                11: (2, 0, 6.730001449584961),
                12: (2, 0, 6.403001308441162),
                13: (2, 0, 6.076001167297363),
                14: (2, 0, 5.7490010261535645),
                15: (2, 0, 5.422000885009766),
                16: (2, 0, 5.095000743865967),
                17: (2, 0, 4.768000602722168),
                18: (2, 0, 4.441000461578369),
                19: (2, 0, 4.11400032043457),
                20: (2, 0, 3.7870001792907715),
                21: (2, 0, 3.4600000381469727),
                22: (2, 0, 3.132999897003174),
                23: (2, 0, 2.805999755859375),
                24: (2, 0, 2.478999614715576),
                25: (2, 0, 2.1519994735717773),
                26: (2, 0, 1.824999451637268),
                27: (2, 0, 1.4979994297027588),
                28: (2, 0, 1.1709994077682495),
                29: (2, 0, 0.8439993858337402),
                30: (2, 0, 0.516999363899231),
                31: (2, 0, 0.18999932706356049),
                32: (2, 0, -0.13700070977210999),
                33: (2, 0, -0.46400073170661926),
                34: (2, 0, -0.7910007834434509),
                35: (2, 0, -1.118000864982605),
                36: (2, 0, -1.4450008869171143),
                37: (2, 0, -1.7720009088516235),
                38: (2, 0, -2.099000930786133),
                39: (2, 0, -2.4260010719299316),
                40: (2, 0, -2.7530012130737305),
                41: (2, 0, -3.0800013542175293),
                42: (2, 0, -3.407001495361328),
                43: (2, 0, -3.734001636505127),
                44: (2, 0, -4.061001777648926),
                45: (2, 0, -4.388001918792725),
                46: (2, 0, -4.715002059936523),
                47: (2, 0, -5.042002201080322),
                48: (2, 0, -5.369002342224121),
                49: (2, 0, -5.69600248336792),
                50: (2, 0, -6.023002624511719),
                51: (2, 0, -6.350002765655518),
                52: (2, 0, -6.677002906799316),
                53: (2, 0, -7.004003047943115),
                54: (2, 0, -7.331003189086914),
                55: (2, 0, -7.658003330230713),
                56: (2, 0, -7.985003471374512),
                57: (2, 0, -8.312003135681152),
                58: (2, 0, -8.639002799987793),
                59: (2, 0, -8.966002464294434),
                60: (2, 0, -9.293002128601074),
                61: (2, 0, -9.620001792907715),
            }
            double3 xformOp:translate.timeSamples = {
                1: (0, 0, 1),
                2: (0.06666667014360428, 0, 1.322433352470398),
                3: (0.13333334028720856, 0, 1.6339666843414307),
                4: (0.20000001788139343, 0, 1.9346001148223877),
                5: (0.2666666805744171, 0, 2.2243335247039795),
                6: (0.3333333432674408, 0, 2.503166913986206),
                7: (0.4000000059604645, 0, 2.7711002826690674),
                8: (0.46666666865348816, 0, 3.0281336307525635),
                9: (0.5333333611488342, 0, 3.2742669582366943),
                10: (0.6000000238418579, 0, 3.50950026512146),
                11: (0.6666666865348816, 0, 3.7338335514068604),
                12: (0.7333333492279053, 0, 3.9472670555114746),
                13: (0.800000011920929, 0, 4.1498003005981445),
                14: (0.8666666746139526, 0, 4.341433525085449),
                15: (0.9333333373069763, 0, 4.522166728973389),
                16: (1, 0, 4.691999912261963),
                17: (1.0666667222976685, 0, 4.850933074951172),
                18: (1.133333444595337, 0, 4.998966217041016),
                19: (1.2000001668930054, 0, 5.136099338531494),
                20: (1.2666668891906738, 0, 5.262332916259766),
                21: (1.3333336114883423, 0, 5.377666473388672),
                22: (1.4000003337860107, 0, 5.482100009918213),
                23: (1.4666670560836792, 0, 5.575633525848389),
                24: (1.5333337783813477, 0, 5.658267021179199),
                25: (1.6000005006790161, 0, 5.7300004959106445),
                26: (1.6666672229766846, 0, 5.790833950042725),
                27: (1.733333945274353, 0, 5.8407673835754395),
                28: (1.8000006675720215, 0, 5.879800796508789),
                29: (1.86666738986969, 0, 5.907934188842773),
                30: (1.9333341121673584, 0, 5.925167560577393),
                31: (2.0000007152557373, 0, 5.9315009117126465),
                32: (2.066667318344116, 0, 5.926934242248535),
                33: (2.133333921432495, 0, 5.911467552185059),
                34: (2.200000524520874, 0, 5.885100841522217),
                35: (2.266667127609253, 0, 5.84783411026001),
                36: (2.333333730697632, 0, 5.7996673583984375),
                37: (2.4000003337860107, 0, 5.7406005859375),
                38: (2.4666669368743896, 0, 5.670633792877197),
                39: (2.5333335399627686, 0, 5.589766979217529),
                40: (2.6000001430511475, 0, 5.498000144958496),
                41: (2.6666667461395264, 0, 5.395333290100098),
                42: (2.7333333492279053, 0, 5.281766414642334),
                43: (2.799999952316284, 0, 5.157299518585205),
                44: (2.866666555404663, 0, 5.021932601928711),
                45: (2.933333158493042, 0, 4.875665664672852),
                46: (2.999999761581421, 0, 4.718498706817627),
                47: (3.0666663646698, 0, 4.550431728363037),
                48: (3.1333329677581787, 0, 4.37146520614624),
                49: (3.1999995708465576, 0, 4.181598663330078),
                50: (3.2666661739349365, 0, 3.9808318614959717),
                51: (3.3333327770233154, 0, 3.7691650390625),
                52: (3.3999993801116943, 0, 3.546598196029663),
                53: (3.4666659832000732, 0, 3.313131332397461),
                54: (3.533332586288452, 0, 3.0687644481658936),
                55: (3.599999189376831, 0, 2.813497543334961),
                56: (3.66666579246521, 0, 2.547330856323242),
                57: (3.733332395553589, 0, 2.270264148712158),
                58: (3.7999989986419678, 0, 1.982297420501709),
                59: (3.8666656017303467, 0, 1.6834306716918945),
                60: (3.9333322048187256, 0, 1.3736639022827148),
                61: (3.9999988079071045, 0, 1.05299711227417),
            }
            uniform token[] xformOpOrder = ["xformOp:translate"]
        }
    }

    def Xform "genesis_4"
    {
        double3 xformOp:translate = (0, 1, 0)
        uniform token[] xformOpOrder = ["xformOp:translate"]

        def Sphere "projectile"
        {
            double radius = 0.1
            custom double3 reel:velocity
            double3 reel:velocity.timeSamples = {
                1: (2, 0, 10),
                2: (2, 0, 9.67300033569336),
                3: (2, 0, 9.346000671386719),
                4: (2, 0, 9.019001007080078),
                5: (2, 0, 8.692001342773438),
                6: (2, 0, 8.365001678466797),
                7: (2, 0, 8.038002014160156),
                8: (2, 0, 7.711002349853516),
                9: (2, 0, 7.384002685546875),
                10: (2, 0, 7.057003021240234),
                11: (2, 0, 6.730003356933594),
                12: (2, 0, 6.403003692626953),
                13: (2, 0, 6.0760040283203125),
                14: (2, 0, 5.749004364013672),
                15: (2, 0, 5.422004699707031),
                16: (2, 0, 5.095005035400391),
                17: (2, 0, 4.76800537109375),
                18: (2, 0, 4.441005706787109),
                19: (2, 0, 4.114006042480469),
                20: (2, 0, 3.787006378173828),
                21: (2, 0, 3.4600067138671875),
                22: (2, 0, 3.133007049560547),
                23: (2, 0, 2.8060073852539062),
                24: (2, 0, 2.4790077209472656),
                25: (2, 0, 2.152008056640625),
                26: (2, 0, 1.8250080347061157),
                27: (2, 0, 1.498007893562317),
                28: (2, 0, 1.171007752418518),
                29: (2, 0, 0.8440076112747192),
                30: (2, 0, 0.5170074701309204),
                31: (2, 0, 0.19000744819641113),
                32: (2, 0, -0.13699257373809814),
                33: (2, 0, -0.4639925956726074),
                34: (2, 0, -0.7909927368164062),
                35: (2, 0, -1.117992877960205),
                36: (2, 0, -1.444993019104004),
                37: (2, 0, -1.7719931602478027),
                38: (2, 0, -2.0989930629730225),
                39: (2, 0, -2.425992727279663),
                40: (2, 0, -2.7529923915863037),
                41: (2, 0, -3.0799920558929443),
                42: (2, 0, -3.406991720199585),
                43: (2, 0, -3.7339913845062256),
                44: (2, 0, -4.060991287231445),
                45: (2, 0, -4.387990951538086),
                46: (2, 0, -4.714990615844727),
                47: (2, 0, -5.041990280151367),
                48: (2, 0, -5.368989944458008),
                49: (2, 0, -5.695989608764648),
                50: (2, 0, -6.022989273071289),
                51: (2, 0, -6.34998893737793),
                52: (2, 0, -6.67698860168457),
                53: (2, 0, -7.003988265991211),
                54: (2, 0, -7.330987930297852),
                55: (2, 0, -7.657987594604492),
                56: (2, 0, -7.984987258911133),
                57: (2, 0, -8.311986923217773),
                58: (2, 0, -8.638986587524414),
                59: (2, 0, -8.965986251831055),
                60: (2, 0, -9.292985916137695),
                61: (2, 0, -9.619985580444336),
            }
            double3 xformOp:translate.timeSamples = {
                1: (0, 0, 1),
                2: (0.06666667014360428, 0, 1.3265209197998047),
                3: (0.13333334028720856, 0, 1.6421418190002441),
                4: (0.20000000298023224, 0, 1.9468626976013184),
                5: (0.2666666805744171, 0, 2.2406835556030273),
                6: (0.33333340287208557, 0, 2.523604393005371),
                7: (0.40000012516975403, 0, 2.7956254482269287),
                8: (0.4666668474674225, 0, 3.056746244430542),
                9: (0.5333334803581238, 0, 3.306967258453369),
                10: (0.6000000834465027, 0, 3.546288251876831),
                11: (0.6666666865348816, 0, 3.7747092247009277),
                12: (0.7333332896232605, 0, 3.992230176925659),
                13: (0.7999998927116394, 0, 4.198851108551025),
                14: (0.8666664958000183, 0, 4.3945722579956055),
                15: (0.9333330988883972, 0, 4.579392910003662),
                16: (0.9999997019767761, 0, 4.753314018249512),
                17: (1.0666663646697998, 0, 4.916335105895996),
                18: (1.1333329677581787, 0, 5.068456172943115),
                19: (1.1999995708465576, 0, 5.209677219390869),
                20: (1.2666661739349365, 0, 5.339998245239258),
                21: (1.3333327770233154, 0, 5.459419250488281),
                22: (1.3999993801116943, 0, 5.5679402351379395),
                23: (1.4666659832000732, 0, 5.665561676025391),
                24: (1.5333325862884521, 0, 5.752282619476318),
                25: (1.599999189376831, 0, 5.828103542327881),
                26: (1.66666579246521, 0, 5.893024444580078),
                27: (1.7333323955535889, 0, 5.947045803070068),
                28: (1.7999989986419678, 0, 5.990167140960693),
                29: (1.8666656017303467, 0, 6.022387981414795),
                30: (1.9333322048187256, 0, 6.043708801269531),
                31: (1.9999988079071045, 0, 6.0541300773620605),
                32: (2.0666654109954834, 0, 6.053651332855225),
                33: (2.1333320140838623, 0, 6.042272567749023),
                34: (2.199998617172241, 0, 6.019993305206299),
                35: (2.26666522026062, 0, 5.986814498901367),
                36: (2.333331823348999, 0, 5.94273567199707),
                37: (2.399998426437378, 0, 5.887756824493408),
                38: (2.466665029525757, 0, 5.821877479553223),
                39: (2.5333316326141357, 0, 5.74509859085083),
                40: (2.5999982357025146, 0, 5.657419681549072),
                41: (2.6666648387908936, 0, 5.558840751647949),
                42: (2.7333314418792725, 0, 5.449362277984619),
                43: (2.7999980449676514, 0, 5.328983306884766),
                44: (2.8666646480560303, 0, 5.197704315185547),
                45: (2.933331251144409, 0, 5.055525302886963),
                46: (2.999997854232788, 0, 4.902446746826172),
                47: (3.066664457321167, 0, 4.738468170166016),
                48: (3.133331060409546, 0, 4.563589096069336),
                49: (3.199997663497925, 0, 4.377810001373291),
                50: (3.2666642665863037, 0, 4.181131362915039),
                51: (3.3333308696746826, 0, 3.973552703857422),
                52: (3.3999974727630615, 0, 3.7550737857818604),
                53: (3.4666640758514404, 0, 3.5256950855255127),
                54: (3.5333306789398193, 0, 3.2854161262512207),
                55: (3.5999972820281982, 0, 3.0342373847961426),
                56: (3.666663885116577, 0, 2.772158622741699),
                57: (3.733330488204956, 0, 2.4991798400878906),
                58: (3.799997091293335, 0, 2.215301275253296),
                59: (3.866663694381714, 0, 1.9205225706100464),
                60: (3.9333302974700928, 0, 1.6148438453674316),
                61: (3.9999969005584717, 0, 1.2982650995254517),
            }
            uniform token[] xformOpOrder = ["xformOp:translate"]
        }
    }

    def Xform "genesis_16"
    {
        double3 xformOp:translate = (0, 2, 0)
        uniform token[] xformOpOrder = ["xformOp:translate"]

        def Sphere "projectile"
        {
            double radius = 0.1
            custom double3 reel:velocity
            double3 reel:velocity.timeSamples = {
                1: (2, 0, 10),
                2: (2, 0, 9.673004150390625),
                3: (2, 0, 9.34600830078125),
                4: (2, 0, 9.019012451171875),
                5: (2, 0, 8.6920166015625),
                6: (2, 0, 8.365020751953125),
                7: (2, 0, 8.03802490234375),
                8: (2, 0, 7.711021900177002),
                9: (2, 0, 7.384018421173096),
                10: (2, 0, 7.0570149421691895),
                11: (2, 0, 6.730011463165283),
                12: (2, 0, 6.403007984161377),
                13: (2, 0, 6.076004505157471),
                14: (2, 0, 5.7490010261535645),
                15: (2, 0, 5.421997547149658),
                16: (2, 0, 5.094994068145752),
                17: (2, 0, 4.767990589141846),
                18: (2, 0, 4.4409871101379395),
                19: (2, 0, 4.113983631134033),
                20: (2, 0, 3.786982774734497),
                21: (2, 0, 3.4599831104278564),
                22: (2, 0, 3.132983446121216),
                23: (2, 0, 2.805983781814575),
                24: (2, 0, 2.4789841175079346),
                25: (2, 0, 2.151984453201294),
                26: (2, 0, 1.8249847888946533),
                27: (2, 0, 1.4979851245880127),
                28: (2, 0, 1.170985460281372),
                29: (2, 0, 0.8439857959747314),
                30: (2, 0, 0.5169861316680908),
                31: (2, 0, 0.189985990524292),
                32: (2, 0, -0.13701406121253967),
                33: (2, 0, -0.4640142023563385),
                34: (2, 0, -0.7910138964653015),
                35: (2, 0, -1.118013620376587),
                36: (2, 0, -1.4450132846832275),
                37: (2, 0, -1.7720129489898682),
                38: (2, 0, -2.099012613296509),
                39: (2, 0, -2.4260122776031494),
                40: (2, 0, -2.75301194190979),
                41: (2, 0, -3.0800116062164307),
                42: (2, 0, -3.4070112705230713),
                43: (2, 0, -3.734010934829712),
                44: (2, 0, -4.06101131439209),
                45: (2, 0, -4.388014793395996),
                46: (2, 0, -4.715018272399902),
                47: (2, 0, -5.042021751403809),
                48: (2, 0, -5.369025230407715),
                49: (2, 0, -5.696028709411621),
                50: (2, 0, -6.023032188415527),
                51: (2, 0, -6.350035667419434),
                52: (2, 0, -6.67703914642334),
                53: (2, 0, -7.004042625427246),
                54: (2, 0, -7.331046104431152),
                55: (2, 0, -7.658049583435059),
                56: (2, 0, -7.985053062438965),
                57: (2, 0, -8.31204891204834),
                58: (2, 0, -8.639044761657715),
                59: (2, 0, -8.96604061126709),
                60: (2, 0, -9.293036460876465),
                61: (2, 0, -9.62003231048584),
            }
            double3 xformOp:translate.timeSamples = {
                1: (0, 0, 1),
                2: (0.06666667014360428, 0, 1.3275429010391235),
                3: (0.13333337008953094, 0, 1.644186019897461),
                4: (0.19999997317790985, 0, 1.9499292373657227),
                5: (0.26666659116744995, 0, 2.2447726726531982),
                6: (0.33333319425582886, 0, 2.5287160873413086),
                7: (0.39999979734420776, 0, 2.801759719848633),
                8: (0.46666640043258667, 0, 3.063903331756592),
                9: (0.5333330035209656, 0, 3.3151466846466064),
                10: (0.5999996066093445, 0, 3.5554897785186768),
                11: (0.6666662096977234, 0, 3.784933090209961),
                12: (0.7333328127861023, 0, 4.003476142883301),
                13: (0.7999994158744812, 0, 4.211119174957275),
                14: (0.8666660189628601, 0, 4.407862186431885),
                15: (0.933332622051239, 0, 4.593704700469971),
                16: (0.9999992251396179, 0, 4.768647193908691),
                17: (1.0666667222976685, 0, 4.932689666748047),
                18: (1.1333342790603638, 0, 5.085831642150879),
                19: (1.200001835823059, 0, 5.228074073791504),
                20: (1.2666693925857544, 0, 5.359416484832764),
                21: (1.3333369493484497, 0, 5.4798583984375),
                22: (1.400004506111145, 0, 5.589400768280029),
                23: (1.4666720628738403, 0, 5.688043117523193),
                24: (1.5333396196365356, 0, 5.775784969329834),
                25: (1.600007176399231, 0, 5.852627277374268),
                26: (1.6666747331619263, 0, 5.918569564819336),
                27: (1.7333422899246216, 0, 5.973611831665039),
                28: (1.800009846687317, 0, 6.017754077911377),
                29: (1.8666774034500122, 0, 6.05099630355835),
                30: (1.9333449602127075, 0, 6.073338985443115),
                31: (2.0000123977661133, 0, 6.084781169891357),
                32: (2.066678047180176, 0, 6.085323333740234),
                33: (2.1333436965942383, 0, 6.074965476989746),
                34: (2.200009346008301, 0, 6.053707599639893),
                35: (2.2666749954223633, 0, 6.021549701690674),
                36: (2.333340644836426, 0, 5.978492259979248),
                37: (2.4000062942504883, 0, 5.924534320831299),
                38: (2.466671943664551, 0, 5.859676361083984),
                39: (2.5333375930786133, 0, 5.783918857574463),
                40: (2.600003242492676, 0, 5.697260856628418),
                41: (2.6666688919067383, 0, 5.599703311920166),
                42: (2.733334541320801, 0, 5.491245746612549),
                43: (2.8000001907348633, 0, 5.371887683868408),
                44: (2.866665840148926, 0, 5.2416300773620605),
                45: (2.9333314895629883, 0, 5.100472450256348),
                46: (2.999997138977051, 0, 4.9484148025512695),
                47: (3.0666627883911133, 0, 4.785456657409668),
                48: (3.133328437805176, 0, 4.611598491668701),
                49: (3.1999940872192383, 0, 4.426840305328369),
                50: (3.266659736633301, 0, 4.231181621551514),
                51: (3.3333253860473633, 0, 4.024623394012451),
                52: (3.399991035461426, 0, 3.8071646690368652),
                53: (3.4666566848754883, 0, 3.578806161880493),
                54: (3.533322334289551, 0, 3.3395473957061768),
                55: (3.5999879837036133, 0, 3.089388608932495),
                56: (3.666653633117676, 0, 2.828329563140869),
                57: (3.7333192825317383, 0, 2.556370496749878),
                58: (3.799984931945801, 0, 2.2735116481781006),
                59: (3.8666505813598633, 0, 1.9797528982162476),
                60: (3.933316230773926, 0, 1.6750943660736084),
                61: (3.9999818801879883, 0, 1.3595359325408936),
            }
            uniform token[] xformOpOrder = ["xformOp:translate"]
        }
    }

    def Xform "newton_1"
    {
        double3 xformOp:translate = (0, 3, 0)
        uniform token[] xformOpOrder = ["xformOp:translate"]

        def Sphere "projectile"
        {
            double radius = 0.1
            custom double3 reel:velocity
            double3 reel:velocity.timeSamples = {
                1: (2, 0, 10),
                2: (2, 0, 9.67300033569336),
                3: (2, 0, 9.346000671386719),
                4: (2, 0, 9.019001007080078),
                5: (2, 0, 8.692001342773438),
                6: (2, 0, 8.365001678466797),
                7: (2, 0, 8.038002014160156),
                8: (2, 0, 7.711001873016357),
                9: (2, 0, 7.384001731872559),
                10: (2, 0, 7.05700159072876),
                11: (2, 0, 6.730001449584961),
                12: (2, 0, 6.403001308441162),
                13: (2, 0, 6.076001167297363),
                14: (2, 0, 5.7490010261535645),
                15: (2, 0, 5.422000885009766),
                16: (2, 0, 5.095000743865967),
                17: (2, 0, 4.768000602722168),
                18: (2, 0, 4.441000461578369),
                19: (2, 0, 4.11400032043457),
                20: (2, 0, 3.7870001792907715),
                21: (2, 0, 3.4600000381469727),
                22: (2, 0, 3.132999897003174),
                23: (2, 0, 2.805999755859375),
                24: (2, 0, 2.478999614715576),
                25: (2, 0, 2.1519994735717773),
                26: (2, 0, 1.824999451637268),
                27: (2, 0, 1.4979994297027588),
                28: (2, 0, 1.1709994077682495),
                29: (2, 0, 0.8439993858337402),
                30: (2, 0, 0.516999363899231),
                31: (2, 0, 0.18999932706356049),
                32: (2, 0, -0.13700070977210999),
                33: (2, 0, -0.46400073170661926),
                34: (2, 0, -0.7910007834434509),
                35: (2, 0, -1.118000864982605),
                36: (2, 0, -1.4450008869171143),
                37: (2, 0, -1.7720009088516235),
                38: (2, 0, -2.099000930786133),
                39: (2, 0, -2.4260010719299316),
                40: (2, 0, -2.7530012130737305),
                41: (2, 0, -3.0800013542175293),
                42: (2, 0, -3.407001495361328),
                43: (2, 0, -3.734001636505127),
                44: (2, 0, -4.061001777648926),
                45: (2, 0, -4.388001918792725),
                46: (2, 0, -4.715002059936523),
                47: (2, 0, -5.042002201080322),
                48: (2, 0, -5.369002342224121),
                49: (2, 0, -5.69600248336792),
                50: (2, 0, -6.023002624511719),
                51: (2, 0, -6.350002765655518),
                52: (2, 0, -6.677002906799316),
                53: (2, 0, -7.004003047943115),
                54: (2, 0, -7.331003189086914),
                55: (2, 0, -7.658003330230713),
                56: (2, 0, -7.985003471374512),
                57: (2, 0, -8.312003135681152),
                58: (2, 0, -8.639002799987793),
                59: (2, 0, -8.966002464294434),
                60: (2, 0, -9.293002128601074),
                61: (2, 0, -9.620001792907715),
            }
            double3 xformOp:translate.timeSamples = {
                1: (0, 0, 1),
                2: (0.06666667014360428, 0, 1.322433352470398),
                3: (0.13333334028720856, 0, 1.6339666843414307),
                4: (0.20000001788139343, 0, 1.9346001148223877),
                5: (0.2666666805744171, 0, 2.2243335247039795),
                6: (0.3333333432674408, 0, 2.503166913986206),
                7: (0.4000000059604645, 0, 2.7711002826690674),
                8: (0.46666666865348816, 0, 3.0281336307525635),
                9: (0.5333333611488342, 0, 3.2742669582366943),
                10: (0.6000000238418579, 0, 3.50950026512146),
                11: (0.6666666865348816, 0, 3.7338335514068604),
                12: (0.7333333492279053, 0, 3.9472670555114746),
                13: (0.800000011920929, 0, 4.1498003005981445),
                14: (0.8666666746139526, 0, 4.341433525085449),
                15: (0.9333333373069763, 0, 4.522166728973389),
                16: (1, 0, 4.691999912261963),
                17: (1.0666667222976685, 0, 4.850933074951172),
                18: (1.133333444595337, 0, 4.998966217041016),
                19: (1.2000001668930054, 0, 5.136099338531494),
                20: (1.2666668891906738, 0, 5.262332916259766),
                21: (1.3333336114883423, 0, 5.377666473388672),
                22: (1.4000003337860107, 0, 5.482100009918213),
                23: (1.4666670560836792, 0, 5.575633525848389),
                24: (1.5333337783813477, 0, 5.658267021179199),
                25: (1.6000005006790161, 0, 5.7300004959106445),
                26: (1.6666672229766846, 0, 5.790833950042725),
                27: (1.733333945274353, 0, 5.8407673835754395),
                28: (1.8000006675720215, 0, 5.879800796508789),
                29: (1.86666738986969, 0, 5.907934188842773),
                30: (1.9333341121673584, 0, 5.925167560577393),
                31: (2.0000007152557373, 0, 5.9315009117126465),
                32: (2.066667318344116, 0, 5.926934242248535),
                33: (2.133333921432495, 0, 5.911467552185059),
                34: (2.200000524520874, 0, 5.885100841522217),
                35: (2.266667127609253, 0, 5.84783411026001),
                36: (2.333333730697632, 0, 5.7996673583984375),
                37: (2.4000003337860107, 0, 5.7406005859375),
                38: (2.4666669368743896, 0, 5.670633792877197),
                39: (2.5333335399627686, 0, 5.589766979217529),
                40: (2.6000001430511475, 0, 5.498000144958496),
                41: (2.6666667461395264, 0, 5.395333290100098),
                42: (2.7333333492279053, 0, 5.281766414642334),
                43: (2.799999952316284, 0, 5.157299518585205),
                44: (2.866666555404663, 0, 5.021932601928711),
                45: (2.933333158493042, 0, 4.875665664672852),
                46: (2.999999761581421, 0, 4.718498706817627),
                47: (3.0666663646698, 0, 4.550431728363037),
                48: (3.1333329677581787, 0, 4.37146520614624),
                49: (3.1999995708465576, 0, 4.181598663330078),
                50: (3.2666661739349365, 0, 3.9808318614959717),
                51: (3.3333327770233154, 0, 3.7691650390625),
                52: (3.3999993801116943, 0, 3.546598196029663),
                53: (3.4666659832000732, 0, 3.313131332397461),
                54: (3.533332586288452, 0, 3.0687644481658936),
                55: (3.599999189376831, 0, 2.813497543334961),
                56: (3.66666579246521, 0, 2.547330856323242),
                57: (3.733332395553589, 0, 2.270264148712158),
                58: (3.7999989986419678, 0, 1.982297420501709),
                59: (3.8666656017303467, 0, 1.6834306716918945),
                60: (3.9333322048187256, 0, 1.3736639022827148),
                61: (3.9999988079071045, 0, 1.05299711227417),
            }
            uniform token[] xformOpOrder = ["xformOp:translate"]
        }
    }

    def Xform "newton_4"
    {
        double3 xformOp:translate = (0, 4, 0)
        uniform token[] xformOpOrder = ["xformOp:translate"]

        def Sphere "projectile"
        {
            double radius = 0.1
            custom double3 reel:velocity
            double3 reel:velocity.timeSamples = {
                1: (2, 0, 10),
                2: (2, 0, 9.67300033569336),
                3: (2, 0, 9.346000671386719),
                4: (2, 0, 9.019001007080078),
                5: (2, 0, 8.692001342773438),
                6: (2, 0, 8.365001678466797),
                7: (2, 0, 8.038002014160156),
                8: (2, 0, 7.711002349853516),
                9: (2, 0, 7.384002685546875),
                10: (2, 0, 7.057003021240234),
                11: (2, 0, 6.730003356933594),
                12: (2, 0, 6.403003692626953),
                13: (2, 0, 6.0760040283203125),
                14: (2, 0, 5.749004364013672),
                15: (2, 0, 5.422004699707031),
                16: (2, 0, 5.095005035400391),
                17: (2, 0, 4.76800537109375),
                18: (2, 0, 4.441005706787109),
                19: (2, 0, 4.114006042480469),
                20: (2, 0, 3.787006378173828),
                21: (2, 0, 3.4600067138671875),
                22: (2, 0, 3.133007049560547),
                23: (2, 0, 2.8060073852539062),
                24: (2, 0, 2.4790077209472656),
                25: (2, 0, 2.152008056640625),
                26: (2, 0, 1.8250080347061157),
                27: (2, 0, 1.498007893562317),
                28: (2, 0, 1.171007752418518),
                29: (2, 0, 0.8440076112747192),
                30: (2, 0, 0.5170074701309204),
                31: (2, 0, 0.19000744819641113),
                32: (2, 0, -0.13699257373809814),
                33: (2, 0, -0.4639925956726074),
                34: (2, 0, -0.7909927368164062),
                35: (2, 0, -1.117992877960205),
                36: (2, 0, -1.444993019104004),
                37: (2, 0, -1.7719931602478027),
                38: (2, 0, -2.0989930629730225),
                39: (2, 0, -2.425992727279663),
                40: (2, 0, -2.7529923915863037),
                41: (2, 0, -3.0799920558929443),
                42: (2, 0, -3.406991720199585),
                43: (2, 0, -3.7339913845062256),
                44: (2, 0, -4.060991287231445),
                45: (2, 0, -4.387990951538086),
                46: (2, 0, -4.714990615844727),
                47: (2, 0, -5.041990280151367),
                48: (2, 0, -5.368989944458008),
                49: (2, 0, -5.695989608764648),
                50: (2, 0, -6.022989273071289),
                51: (2, 0, -6.34998893737793),
                52: (2, 0, -6.67698860168457),
                53: (2, 0, -7.003988265991211),
                54: (2, 0, -7.330987930297852),
                55: (2, 0, -7.657987594604492),
                56: (2, 0, -7.984987258911133),
                57: (2, 0, -8.311986923217773),
                58: (2, 0, -8.638986587524414),
                59: (2, 0, -8.965986251831055),
                60: (2, 0, -9.292985916137695),
                61: (2, 0, -9.619985580444336),
            }
            double3 xformOp:translate.timeSamples = {
                1: (0, 0, 1),
                2: (0.06666667014360428, 0, 1.3265209197998047),
                3: (0.13333334028720856, 0, 1.6421418190002441),
                4: (0.20000000298023224, 0, 1.9468626976013184),
                5: (0.2666666805744171, 0, 2.2406835556030273),
                6: (0.33333340287208557, 0, 2.523604393005371),
                7: (0.40000012516975403, 0, 2.7956254482269287),
                8: (0.4666668474674225, 0, 3.056746244430542),
                9: (0.5333334803581238, 0, 3.306967258453369),
                10: (0.6000000834465027, 0, 3.546288251876831),
                11: (0.6666666865348816, 0, 3.7747092247009277),
                12: (0.7333332896232605, 0, 3.992230176925659),
                13: (0.7999998927116394, 0, 4.198851108551025),
                14: (0.8666664958000183, 0, 4.3945722579956055),
                15: (0.9333330988883972, 0, 4.579392910003662),
                16: (0.9999997019767761, 0, 4.753314018249512),
                17: (1.0666663646697998, 0, 4.916335105895996),
                18: (1.1333329677581787, 0, 5.068456172943115),
                19: (1.1999995708465576, 0, 5.209677219390869),
                20: (1.2666661739349365, 0, 5.339998245239258),
                21: (1.3333327770233154, 0, 5.459419250488281),
                22: (1.3999993801116943, 0, 5.5679402351379395),
                23: (1.4666659832000732, 0, 5.665561676025391),
                24: (1.5333325862884521, 0, 5.752282619476318),
                25: (1.599999189376831, 0, 5.828103542327881),
                26: (1.66666579246521, 0, 5.893024444580078),
                27: (1.7333323955535889, 0, 5.947045803070068),
                28: (1.7999989986419678, 0, 5.990167140960693),
                29: (1.8666656017303467, 0, 6.022387981414795),
                30: (1.9333322048187256, 0, 6.043708801269531),
                31: (1.9999988079071045, 0, 6.0541300773620605),
                32: (2.0666654109954834, 0, 6.053651332855225),
                33: (2.1333320140838623, 0, 6.042272567749023),
                34: (2.199998617172241, 0, 6.019993305206299),
                35: (2.26666522026062, 0, 5.986814498901367),
                36: (2.333331823348999, 0, 5.94273567199707),
                37: (2.399998426437378, 0, 5.887756824493408),
                38: (2.466665029525757, 0, 5.821877479553223),
                39: (2.5333316326141357, 0, 5.74509859085083),
                40: (2.5999982357025146, 0, 5.657419681549072),
                41: (2.6666648387908936, 0, 5.558840751647949),
                42: (2.7333314418792725, 0, 5.449362277984619),
                43: (2.7999980449676514, 0, 5.328983306884766),
                44: (2.8666646480560303, 0, 5.197704315185547),
                45: (2.933331251144409, 0, 5.055525302886963),
                46: (2.999997854232788, 0, 4.902446746826172),
                47: (3.066664457321167, 0, 4.738468170166016),
                48: (3.133331060409546, 0, 4.563589096069336),
                49: (3.199997663497925, 0, 4.377810001373291),
                50: (3.2666642665863037, 0, 4.181131362915039),
                51: (3.3333308696746826, 0, 3.973552703857422),
                52: (3.3999974727630615, 0, 3.7550737857818604),
                53: (3.4666640758514404, 0, 3.5256950855255127),
                54: (3.5333306789398193, 0, 3.2854161262512207),
                55: (3.5999972820281982, 0, 3.0342373847961426),
                56: (3.666663885116577, 0, 2.772158622741699),
                57: (3.733330488204956, 0, 2.4991798400878906),
                58: (3.799997091293335, 0, 2.215301275253296),
                59: (3.866663694381714, 0, 1.9205225706100464),
                60: (3.9333302974700928, 0, 1.6148438453674316),
                61: (3.9999969005584717, 0, 1.2982650995254517),
            }
            uniform token[] xformOpOrder = ["xformOp:translate"]
        }
    }

    def Xform "newton_16"
    {
        double3 xformOp:translate = (0, 5, 0)
        uniform token[] xformOpOrder = ["xformOp:translate"]

        def Sphere "projectile"
        {
            double radius = 0.1
            custom double3 reel:velocity
            double3 reel:velocity.timeSamples = {
                1: (2, 0, 10),
                2: (2, 0, 9.673004150390625),
                3: (2, 0, 9.34600830078125),
                4: (2, 0, 9.019012451171875),
                5: (2, 0, 8.6920166015625),
                6: (2, 0, 8.365020751953125),
                7: (2, 0, 8.03802490234375),
                8: (2, 0, 7.711021900177002),
                9: (2, 0, 7.384018421173096),
                10: (2, 0, 7.0570149421691895),
                11: (2, 0, 6.730011463165283),
                12: (2, 0, 6.403007984161377),
                13: (2, 0, 6.076004505157471),
                14: (2, 0, 5.7490010261535645),
                15: (2, 0, 5.421997547149658),
                16: (2, 0, 5.094994068145752),
                17: (2, 0, 4.767990589141846),
                18: (2, 0, 4.4409871101379395),
                19: (2, 0, 4.113983631134033),
                20: (2, 0, 3.786982774734497),
                21: (2, 0, 3.4599831104278564),
                22: (2, 0, 3.132983446121216),
                23: (2, 0, 2.805983781814575),
                24: (2, 0, 2.4789841175079346),
                25: (2, 0, 2.151984453201294),
                26: (2, 0, 1.8249847888946533),
                27: (2, 0, 1.4979851245880127),
                28: (2, 0, 1.170985460281372),
                29: (2, 0, 0.8439857959747314),
                30: (2, 0, 0.5169861316680908),
                31: (2, 0, 0.189985990524292),
                32: (2, 0, -0.13701406121253967),
                33: (2, 0, -0.4640142023563385),
                34: (2, 0, -0.7910138964653015),
                35: (2, 0, -1.118013620376587),
                36: (2, 0, -1.4450132846832275),
                37: (2, 0, -1.7720129489898682),
                38: (2, 0, -2.099012613296509),
                39: (2, 0, -2.4260122776031494),
                40: (2, 0, -2.75301194190979),
                41: (2, 0, -3.0800116062164307),
                42: (2, 0, -3.4070112705230713),
                43: (2, 0, -3.734010934829712),
                44: (2, 0, -4.06101131439209),
                45: (2, 0, -4.388014793395996),
                46: (2, 0, -4.715018272399902),
                47: (2, 0, -5.042021751403809),
                48: (2, 0, -5.369025230407715),
                49: (2, 0, -5.696028709411621),
                50: (2, 0, -6.023032188415527),
                51: (2, 0, -6.350035667419434),
                52: (2, 0, -6.67703914642334),
                53: (2, 0, -7.004042625427246),
                54: (2, 0, -7.331046104431152),
                55: (2, 0, -7.658049583435059),
                56: (2, 0, -7.985053062438965),
                57: (2, 0, -8.31204891204834),
                58: (2, 0, -8.639044761657715),
                59: (2, 0, -8.96604061126709),
                60: (2, 0, -9.293036460876465),
                61: (2, 0, -9.62003231048584),
            }
            double3 xformOp:translate.timeSamples = {
                1: (0, 0, 1),
                2: (0.06666667014360428, 0, 1.3275429010391235),
                3: (0.13333337008953094, 0, 1.644186019897461),
                4: (0.19999997317790985, 0, 1.9499292373657227),
                5: (0.26666659116744995, 0, 2.2447726726531982),
                6: (0.33333319425582886, 0, 2.5287160873413086),
                7: (0.39999979734420776, 0, 2.801759719848633),
                8: (0.46666640043258667, 0, 3.063903331756592),
                9: (0.5333330035209656, 0, 3.3151466846466064),
                10: (0.5999996066093445, 0, 3.5554897785186768),
                11: (0.6666662096977234, 0, 3.784933090209961),
                12: (0.7333328127861023, 0, 4.003476142883301),
                13: (0.7999994158744812, 0, 4.211119174957275),
                14: (0.8666660189628601, 0, 4.407862186431885),
                15: (0.933332622051239, 0, 4.593704700469971),
                16: (0.9999992251396179, 0, 4.768647193908691),
                17: (1.0666667222976685, 0, 4.932689666748047),
                18: (1.1333342790603638, 0, 5.085831642150879),
                19: (1.200001835823059, 0, 5.228074073791504),
                20: (1.2666693925857544, 0, 5.359416484832764),
                21: (1.3333369493484497, 0, 5.4798583984375),
                22: (1.400004506111145, 0, 5.589400768280029),
                23: (1.4666720628738403, 0, 5.688043117523193),
                24: (1.5333396196365356, 0, 5.775784969329834),
                25: (1.600007176399231, 0, 5.852627277374268),
                26: (1.6666747331619263, 0, 5.918569564819336),
                27: (1.7333422899246216, 0, 5.973611831665039),
                28: (1.800009846687317, 0, 6.017754077911377),
                29: (1.8666774034500122, 0, 6.05099630355835),
                30: (1.9333449602127075, 0, 6.073338985443115),
                31: (2.0000123977661133, 0, 6.084781169891357),
                32: (2.066678047180176, 0, 6.085323333740234),
                33: (2.1333436965942383, 0, 6.074965476989746),
                34: (2.200009346008301, 0, 6.053707599639893),
                35: (2.2666749954223633, 0, 6.021549701690674),
                36: (2.333340644836426, 0, 5.978492259979248),
                37: (2.4000062942504883, 0, 5.924534320831299),
                38: (2.466671943664551, 0, 5.859676361083984),
                39: (2.5333375930786133, 0, 5.783918857574463),
                40: (2.600003242492676, 0, 5.697260856628418),
                41: (2.6666688919067383, 0, 5.599703311920166),
                42: (2.733334541320801, 0, 5.491245746612549),
                43: (2.8000001907348633, 0, 5.371887683868408),
                44: (2.866665840148926, 0, 5.2416300773620605),
                45: (2.9333314895629883, 0, 5.100472450256348),
                46: (2.999997138977051, 0, 4.9484148025512695),
                47: (3.0666627883911133, 0, 4.785456657409668),
                48: (3.133328437805176, 0, 4.611598491668701),
                49: (3.1999940872192383, 0, 4.426840305328369),
                50: (3.266659736633301, 0, 4.231181621551514),
                51: (3.3333253860473633, 0, 4.024623394012451),
                52: (3.399991035461426, 0, 3.8071646690368652),
                53: (3.4666566848754883, 0, 3.578806161880493),
                54: (3.533322334289551, 0, 3.3395473957061768),
                55: (3.5999879837036133, 0, 3.089388608932495),
                56: (3.666653633117676, 0, 2.828329563140869),
                57: (3.7333192825317383, 0, 2.556370496749878),
                58: (3.799984931945801, 0, 2.2735116481781006),
                59: (3.8666505813598633, 0, 1.9797528982162476),
                60: (3.933316230773926, 0, 1.6750943660736084),
                61: (3.9999818801879883, 0, 1.3595359325408936),
            }
            uniform token[] xformOpOrder = ["xformOp:translate"]
        }
    }
}
