#usda 1.0
(
    customLayerData = {
        string sampling = "Frame 1 = simulation 0 s. Recorded poses at 30 Hz; no resimulation."
        string source = "Robot Reel / Newton 1.6.0 / SolverXPBD / CPU"
    }
    defaultPrim = "World"
    endTimeCode = 181
    framesPerSecond = 30
    metersPerUnit = 1
    startTimeCode = 1
    timeCodesPerSecond = 30
    upAxis = "Z"
)

def Xform "World"
{
    def Cube "upper"
    {
        color3f[] primvars:displayColor = [(0.39607844, 0.8627451, 0.77254903)]
        custom int reel:bodyIndex = 0
        double size = 1
        matrix4d xformOp:transform.timeSamples = {
            1: ( (1.3640392472544336, 0, -0.8362995231121033, 0), (0, 0.18, 0, 0), (0.09408369635011161, 0, 0.15345441531612375, 0), (0.6820195317268372, 0, 3.381850242614746, 1) ),
            2: ( (1.361023736568859, 0, -0.8411982507461744, 0), (0, 0.18, 0, 0), (0.09463480320894462, 0, 0.15311517036399663, 0), (0.6805303692817688, 0, 3.379343032836914, 1) ),
            3: ( (1.3524082396009562, 0, -0.8549807303042769, 0), (0, 0.18, 0, 0), (0.09618533215923115, 0, 0.15214592695510756, 0), (0.6762270331382751, 0, 3.372446060180664, 1) ),
            4: ( (1.338015101076553, 0, -0.8773343666695155, 0), (0, 0.18, 0, 0), (0.09870011625032049, 0, 0.15052669887111222, 0), (0.6690319180488586, 0, 3.361262321472168, 1) ),
            5: ( (1.3175473070463342, 0, -0.9077825220462729, 0), (0, 0.18, 0, 0), (0.10212553373020568, 0, 0.14822407204271257, 0), (0.6587986350059509, 0, 3.3460283279418945, 1) ),
            6: ( (1.2906442425892437, 0, -0.9456413390388718, 0), (0, 0.18, 0, 0), (0.10638465064187308, 0, 0.1451974772912899, 0), (0.6453473567962646, 0, 3.32708477973938, 1) ),
            7: ( (1.2569293691401726, 0, -0.9900145042466875, 0), (0, 0.18, 0, 0), (0.11137663172775233, 0, 0.1414045540282694, 0), (0.6284898519515991, 0, 3.304880142211914, 1) ),
            8: ( (1.2160736810811585, 0, -1.039790844080875, 0), (0, 0.18, 0, 0), (0.11697646995909843, 0, 0.13680828912163032, 0), (0.6080603003501892, 0, 3.279968738555908, 1) ),
            9: ( (1.1678509646400472, 0, -1.0936746125703167, 0), (0, 0.18, 0, 0), (0.12303839391416062, 0, 0.1313832335220053, 0), (0.583946943283081, 0, 3.2529995441436768, 1) ),
            10: ( (1.11219718353818, 0, -1.1502249603391819, 0), (0, 0.18, 0, 0), (0.12940030803815794, 0, 0.12512218314804524, 0), (0.5561183094978333, 0, 3.224693775177002, 1) ),
            11: ( (1.0492496138731184, 0, -1.2079218514336674, 0), (0, 0.18, 0, 0), (0.13589120828628756, 0, 0.11804058156072582, 0), (0.52464359998703, 0, 3.195812702178955, 1) ),
            12: ( (0.9793705474362924, 0, -1.265240463254122, 0), (0, 0.18, 0, 0), (0.14233955211608873, 0, 0.11017918658658288, 0), (0.4897047281265259, 0, 3.1671202182769775, 1) ),
            13: ( (0.9031548972139462, 0, -1.3207238496735103, 0), (0, 0.18, 0, 0), (0.14858143308826988, 0, 0.10160492593656893, 0), (0.4516003131866455, 0, 3.1393463611602783, 1) ),
            14: ( (0.8214260306965088, 0, -1.373047603157187, 0), (0, 0.18, 0, 0), (0.1544678553551835, 0, 0.09241042845335723, 0), (0.4107417166233063, 0, 3.113154888153076, 1) ),
            15: ( (0.7352206624198516, 0, -1.4210737113751748, 0), (0, 0.18, 0, 0), (0.15987079252970715, 0, 0.0827123245222333, 0), (0.36764711141586304, 0, 3.089115858078003, 1) ),
            16: ( (0.6457686241270381, 0, -1.4638930856153936, 0), (0, 0.18, 0, 0), (0.16468797213173175, 0, 0.07264897021429177, 0), (0.3229316473007202, 0, 3.0676846504211426, 1) ),
            17: ( (0.5544640326511285, 0, -1.5008562513923835, 0), (0, 0.18, 0, 0), (0.16884632828164314, 0, 0.06237720367325195, 0), (0.27729105949401855, 0, 3.0491857528686523, 1) ),
            18: ( (0.4628232831759306, 0, -1.5315986919386888, 0), (0, 0.18, 0, 0), (0.17230485284310249, 0, 0.052067619357292184, 0), (0.23148289322853088, 0, 3.0338010787963867, 1) ),
            19: ( (0.37242619529642984, 0, -1.556052189865659, 0), (0, 0.18, 0, 0), (0.17505587135988662, 0, 0.04189794697084835, 0), (0.18629668653011322, 0, 3.02156400680542, 1) ),
            20: ( (0.2848368464233772, 0, -1.574442197148187, 0), (0, 0.18, 0, 0), (0.17712474717917104, 0, 0.03204414522262994, 0), (0.14251375198364258, 0, 3.0123610496520996, 1) ),
            21: ( (0.20149794385951056, 0, -1.5872612691903443, 0), (0, 0.18, 0, 0), (0.17856689278391372, 0, 0.022668518684194935, 0), (0.10085499286651611, 0, 3.0059430599212646, 1) ),
            22: ( (0.12359670201822155, 0, -1.5952191235581268, 0), (0, 0.18, 0, 0), (0.17946215140028926, 0, 0.013904628977049924, 0), (0.061914898455142975, 0, 3.001955509185791, 1) ),
            23: ( (0.051908873067441165, 0, -1.599157777083383, 0), (0, 0.18, 0, 0), (0.17990524992188056, 0, 0.0058397482200871305, 0), (0.02608090452849865, 0, 2.999976396560669, 1) ),
            24: ( (-0.013379381000879676, 0, -1.599944192244027, 0), (0, 0.18, 0, 0), (0.17999372162745303, 0, -0.0015051803625989635, 0), (-0.00655398378148675, 0, 2.9995737075805664, 1) ),
            25: ( (-0.0728251488148544, 0, -1.5983417699871099, 0), (0, 0.18, 0, 0), (0.17981344912354985, 0, -0.00819282924167112, 0), (-0.03626894950866699, 0, 3.0003697872161865, 1) ),
            26: ( (-0.12777923919970818, 0, -1.5948896602477363, 0), (0, 0.18, 0, 0), (0.1794250867778703, 0, -0.014375164409967169, 0), (-0.06374099105596542, 0, 3.0021004676818848, 1) ),
            27: ( (-0.18022657084584354, 0, -1.589817166202738, 0), (0, 0.18, 0, 0), (0.17885443119780803, 0, -0.020275489220157396, 0), (-0.08996457606554031, 0, 3.0046539306640625, 1) ),
            28: ( (-0.23238985757639058, 0, -1.5830337277817081, 0), (0, 0.18, 0, 0), (0.17809129437544213, 0, -0.026143858977343937, 0), (-0.1160518229007721, 0, 3.0080761909484863, 1) ),
            29: ( (-0.28622355128245547, 0, -1.5741908795043855, 0), (0, 0.18, 0, 0), (0.17709647394424335, 0, -0.03220014951927624, 0), (-0.14297890663146973, 0, 3.0125372409820557, 1) ),
            30: ( (-0.34303180794032645, 0, -1.562795443427183, 0), (0, 0.18, 0, 0), (0.17581448738555805, 0, -0.038591078393286724, 0), (-0.17139725387096405, 0, 3.018278121948242, 1) ),
            31: ( (-0.40334262995839937, 0, -1.5483263451563403, 0), (0, 0.18, 0, 0), (0.17418671383008827, 0, -0.045376045870319924, 0), (-0.20156864821910858, 0, 3.025555372238159, 1) ),
            32: ( (-0.4669910274123254, 0, -1.5303332894196389, 0), (0, 0.18, 0, 0), (0.17216249505970935, 0, -0.052536490583886604, 0), (-0.23340995609760284, 0, 3.0345914363861084, 1) ),
            33: ( (-0.5333038991772924, 0, -1.5085050568691827, 0), (0, 0.18, 0, 0), (0.16970681889778305, 0, -0.05999668865744539, 0), (-0.2665843665599823, 0, 3.0455410480499268, 1) ),
            34: ( (-0.6012955496482392, 0, -1.4827151884428986, 0), (0, 0.18, 0, 0), (0.16680545869982608, 0, -0.0676457493354269, 0), (-0.3005985915660858, 0, 3.058467149734497, 1) ),
            35: ( (-0.6698284483405588, 0, -1.453041422122351, 0), (0, 0.18, 0, 0), (0.16346715998876446, 0, -0.07535570043831284, 0), (-0.3348836600780487, 0, 3.073331117630005, 1) ),
            36: ( (-0.7377415504819965, 0, -1.4197664010772542, 0), (0, 0.18, 0, 0), (0.1597237201211911, 0, -0.0829959244292246, 0), (-0.36885854601860046, 0, 3.089992046356201, 1) ),
            37: ( (-0.8039338290368051, 0, -1.3833619928537246, 0), (0, 0.18, 0, 0), (0.15562822419604402, 0, -0.09044255576664056, 0), (-0.4019727110862732, 0, 3.1082143783569336, 1) ),
            38: ( (-0.8674244601359988, 0, -1.344461299049067, 0), (0, 0.18, 0, 0), (0.15125189614302, 0, -0.09758525176529985, 0), (-0.43373435735702515, 0, 3.1276814937591553, 1) ),
            39: ( (-0.9273833733696052, 0, -1.3038254599110417, 0), (0, 0.18, 0, 0), (0.14668036423999217, 0, -0.10433062950408058, 0), (-0.4637295603752136, 0, 3.148013114929199, 1) ),
            40: ( (-0.983148675097175, 0, -1.262306906448015, 0), (0, 0.18, 0, 0), (0.14200952697540167, 0, -0.11060422594843217, 0), (-0.49162596464157104, 0, 3.16878342628479, 1) ),
            41: ( (-1.034223000818122, 0, -1.2208128953606605, 0), (0, 0.18, 0, 0), (0.1373414507280743, 0, -0.1163500875920387, 0), (-0.5171743631362915, 0, 3.1895394325256348, 1) ),
            42: ( (-1.080260925504183, 0, -1.18026995522265, 0), (0, 0.18, 0, 0), (0.1327803699625481, 0, -0.12152935411922058, 0), (-0.5402032136917114, 0, 3.209817409515381, 1) ),
            43: ( (-1.1210548865421515, 0, -1.1415941497229596, 0), (0, 0.18, 0, 0), (0.12842934184383295, 0, -0.12611867473599203, 0), (-0.5606074333190918, 0, 3.2291605472564697, 1) ),
            44: ( (-1.1565083783147316, 0, -1.1056624151824963, 0), (0, 0.18, 0, 0), (0.12438702170803083, 0, -0.1301071925604073, 0), (-0.5783395767211914, 0, 3.2471303939819336, 1) ),
            45: ( (-1.18661215733365, 0, -1.0732907022191398, 0), (0, 0.18, 0, 0), (0.12074520399965322, 0, -0.13349386770003563, 0), (-0.5933951139450073, 0, 3.2633190155029297, 1) ),
            46: ( (-1.2114172070507268, 0, -1.0452126832222122, 0), (0, 0.18, 0, 0), (0.11758642686249884, 0, -0.13628443579320673, 0), (-0.6057997345924377, 0, 3.277360200881958, 1) ),
            47: ( (-1.2310104191700248, 0, -1.022063587949765, 0), (0, 0.18, 0, 0), (0.11498215364434855, 0, -0.13848867215662777, 0), (-0.6155978441238403, 0, 3.288936138153076, 1) ),
            48: ( (-1.2454900746274236, 0, -1.0043683985627467, 0), (0, 0.18, 0, 0), (0.112991444838309, 0, -0.1401176333955851, 0), (-0.6228382587432861, 0, 3.2977845668792725, 1) ),
            49: ( (-1.2549437803704793, 0, -0.9925307015521583, 0), (0, 0.18, 0, 0), (0.1116597039246178, 0, -0.1411811752916789, 0), (-0.6275653839111328, 0, 3.303704261779785, 1) ),
            50: ( (-1.2594332830632995, 0, -0.9868276627114938, 0), (0, 0.18, 0, 0), (0.11101811205504304, 0, -0.14168624434462115, 0), (-0.6298108100891113, 0, 3.30655574798584, 1) ),
            51: ( (-1.2589796669334192, 0, -0.9874058044354342, 0), (0, 0.18, 0, 0), (0.11108315299898634, 0, -0.14163521253000966, 0), (-0.6295852661132812, 0, 3.3062663078308105, 1) ),
            52: ( (-1.2535606937730792, 0, -0.9942767377986343, 0), (0, 0.18, 0, 0), (0.11185613300234636, 0, -0.14102557804947138, 0), (-0.6268772482872009, 0, 3.302830457687378, 1) ),
            53: ( (-1.243106714727594, 0, -1.0073166622502072, 0), (0, 0.18, 0, 0), (0.1133231245031483, 0, -0.1398495054068543, 0), (-0.6216519474983215, 0, 3.296309471130371, 1) ),
            54: ( (-1.227507435316693, 0, -1.0262686739034963, 0), (0, 0.18, 0, 0), (0.11545522581414332, 0, -0.13809458647312794, 0), (-0.613853931427002, 0, 3.2868316173553467, 1) ),
            55: ( (-1.2066247422567473, 0, -1.050741302409, 0), (0, 0.18, 0, 0), (0.11820839652101249, 0, -0.13574528350388404, 0), (-0.6034140586853027, 0, 3.2745931148529053, 1) ),
            56: ( (-1.180311705434724, 0, -1.0802152654277961, 0), (0, 0.18, 0, 0), (0.12152421736062706, 0, -0.13278506686140645, 0), (-0.5902573466300964, 0, 3.259852886199951, 1) ),
            57: ( (-1.1484306324464455, 0, -1.1140498340929412, 0), (0, 0.18, 0, 0), (0.12533060633545587, 0, -0.12919844615022513, 0), (-0.5743153691291809, 0, 3.242931365966797, 1) ),
            58: ( (-1.1108825473270485, 0, -1.1514952347754104, 0), (0, 0.18, 0, 0), (0.12954321391223367, 0, -0.12497428657429295, 0), (-0.5555372834205627, 0, 3.224203109741211, 1) ),
            59: ( (-1.0676293524679863, 0, -1.1917078583888212, 0), (0, 0.18, 0, 0), (0.13406713406874238, 0, -0.12010830215264846, 0), (-0.5339041948318481, 0, 3.2040891647338867, 1) ),
            60: ( (-1.0187222452181346, 0, -1.2337764203836743, 0), (0, 0.18, 0, 0), (0.13879984729316333, 0, -0.11460625258704013, 0), (-0.5094410181045532, 0, 3.1830451488494873, 1) ),
            61: ( (-0.9643206304986962, 0, -1.2767479534730228, 0), (0, 0.18, 0, 0), (0.14363414476571507, 0, -0.10848607093110331, 0), (-0.48222702741622925, 0, 3.1615469455718994, 1) ),
            62: ( (-0.9047044494215243, 0, -1.3196630402623555, 0), (0, 0.18, 0, 0), (0.148462092029515, 0, -0.10177925055992147, 0), (-0.45240259170532227, 0, 3.1400740146636963, 1) ),
            63: ( (-0.8402797980132619, 0, -1.361591262153263, 0), (0, 0.18, 0, 0), (0.15317901699224207, 0, -0.09453147727649196, 0), (-0.4201711118221283, 0, 3.1190907955169678, 1) ),
            64: ( (-0.7715733180877579, 0, -1.4016682249218322, 0), (0, 0.18, 0, 0), (0.1576876753037061, 0, -0.08680199828487276, 0), (-0.38579681515693665, 0, 3.099029302597046, 1) ),
            65: ( (-0.6992126080699109, 0, -1.4391321770418246, 0), (0, 0.18, 0, 0), (0.16190236991720525, 0, -0.07866141840786497, 0), (-0.3495934009552002, 0, 3.080271005630493, 1) ),
            66: ( (-0.6238916776324914, 0, -1.4733497180627637, 0), (0, 0.18, 0, 0), (0.1657518432820609, 0, -0.07018781373365528, 0), (-0.31190910935401917, 0, 3.0631320476531982, 1) ),
            67: ( (-0.5463268203348094, 0, -1.5038377539544285, 0), (0, 0.18, 0, 0), (0.1691817473198732, 0, -0.061461767287666044, 0), (-0.27310317754745483, 0, 3.04785418510437, 1) ),
            68: ( (-0.46720411118699307, 0, -1.5302683706244125, 0), (0, 0.18, 0, 0), (0.1721551916952464, 0, -0.052560462508536715, 0), (-0.23351968824863434, 0, 3.034602642059326, 1) ),
            69: ( (-0.38712113852252517, 0, -1.552461780354406, 0), (0, 0.18, 0, 0), (0.17465195028987068, 0, -0.04355112808378408, 0), (-0.19345827400684357, 0, 3.023468017578125, 1) ),
            70: ( (-0.30653607893295887, 0, -1.5703616008385097, 0), (0, 0.18, 0, 0), (0.17666568009433234, 0, -0.03448530887995787, 0), (-0.1531488001346588, 0, 3.014479637145996, 1) ),
            71: ( (-0.2257309336131698, 0, -1.5839970754651973, 0), (0, 0.18, 0, 0), (0.1781996709898347, 0, -0.0253947300314816, 0), (-0.11273261159658432, 0, 3.0076255798339844, 1) ),
            72: ( (-0.14480036630176302, 0, -1.5934342913967612, 0), (0, 0.18, 0, 0), (0.17926135778213562, 0, -0.016290041208948336, 0), (-0.07225880026817322, 0, 3.002873182296753, 1) ),
            73: ( (-0.0636862814576034, 0, -1.5987321294265713, 0), (0, 0.18, 0, 0), (0.17985736456048926, 0, -0.007164706663980382, 0), (-0.031697481870651245, 0, 3.0001957416534424, 1) ),
            74: ( (0.01776704145304393, 0, -1.5999015273682744, 0), (0, 0.18, 0, 0), (0.17998892182893086, 0, 0.001998792163467442, 0), (0.009029019623994827, 0, 2.999588966369629, 1) ),
            75: ( (0.09972433575089781, 0, -1.5968893198676142, 0), (0, 0.18, 0, 0), (0.1796500484851066, 0, 0.011218987771976004, 0), (0.0500030480325222, 0, 3.001080274581909, 1) ),
            76: ( (0.18227014208951006, 0, -1.5895840572286035, 0), (0, 0.18, 0, 0), (0.17882820643821787, 0, 0.020505390985069878, 0), (0.09126774966716766, 0, 3.004725217819214, 1) ),
            77: ( (0.265336494329847, 0, -1.5778454091948904, 0), (0, 0.18, 0, 0), (0.17750760853442513, 0, 0.02985035561210779, 0), (0.13278980553150177, 0, 3.010594367980957, 1) ),
            78: ( (0.34866473798100517, 0, -1.5615482036966455, 0), (0, 0.18, 0, 0), (0.17567417291587262, 0, 0.03922478302286308, 0), (0.17444099485874176, 0, 3.0187501907348633, 1) ),
            79: ( (0.4318014710441162, 0, -1.5406322773696388, 0), (0, 0.18, 0, 0), (0.17332113120408435, 0, 0.04857766549246307, 0), (0.2159951776266098, 0, 3.0292210578918457, 1) ),
            80: ( (0.5141247425931283, 0, -1.5151488612060575, 0), (0, 0.18, 0, 0), (0.17045424688568148, 0, 0.05783903354172693, 0), (0.25714239478111267, 0, 3.0419816970825195, 1) ),
            81: ( (0.5948944963134636, 0, -1.485294891640251, 0), (0, 0.18, 0, 0), (0.16709567530952824, 0, 0.06692563083526465, 0), (0.2975134551525116, 0, 3.056931972503662, 1) ),
            82: ( (0.6733085888993515, 0, -1.451432237465042, 0), (0, 0.18, 0, 0), (0.1632861267148172, 0, 0.07574721625117703, 0), (0.33670786023139954, 0, 3.0738906860351562, 1) ),
            83: ( (0.7485628414080111, 0, -1.4140912297767045, 0), (0, 0.18, 0, 0), (0.15908526334987924, 0, 0.08421331965840125, 0), (0.37432411313056946, 0, 3.0925912857055664, 1) ),
            84: ( (0.81990257429552, 0, -1.3739578405382873, 0), (0, 0.18, 0, 0), (0.1545702570605573, 0, 0.092239039608246, 0), (0.4099854528903961, 0, 3.1126904487609863, 1) ),
            85: ( (0.886666021170629, 0, -1.331849699155805, 0), (0, 0.18, 0, 0), (0.14983309115502805, 0, 0.09974992738169575, 0), (0.4433600902557373, 0, 3.133777141571045, 1) ),
            86: ( (0.9483101709701686, 0, -1.2886844672370388, 0), (0, 0.18, 0, 0), (0.14497700256416685, 0, 0.10668489423414396, 0), (0.4741773307323456, 0, 3.1553919315338135, 1) ),
            87: ( (1.004428834293458, 0, -1.2454408782496558, 0), (0, 0.18, 0, 0), (0.14011209880308625, 0, 0.112998243858014, 0), (0.5022334456443787, 0, 3.177044630050659, 1) ),
            88: ( (1.0547557812032864, 0, -1.203116912932211, 0), (0, 0.18, 0, 0), (0.13535065270487373, 0, 0.11866002538536971, 0), (0.5273951888084412, 0, 3.1982343196868896, 1) ),
            89: ( (1.0991543820639635, 0, -1.1626951072140912, 0), (0, 0.18, 0, 0), (0.13080319956158526, 0, 0.12365486798219588, 0), (0.5495933890342712, 0, 3.218470573425293, 1) ),
            90: ( (1.1376013379018333, 0, -1.1251060081960986, 0), (0, 0.18, 0, 0), (0.12657442592206108, 0, 0.12798015051395623, 0), (0.5688161849975586, 0, 3.2372865676879883, 1) ),
            91: ( (1.1701622518969061, 0, -1.0912013008132704, 0), (0, 0.18, 0, 0), (0.1227601463414929, 0, 0.13164325333840193, 0), (0.5850964784622192, 0, 3.2542569637298584, 1) ),
            92: ( (1.1969662512305945, 0, -1.0617305417144054, 0), (0, 0.18, 0, 0), (0.11944468594287058, 0, 0.13465870326344187, 0), (0.5984982252120972, 0, 3.2690072059631348, 1) ),
            93: ( (1.2181765203298711, 0, -1.0373264399257096, 0), (0, 0.18, 0, 0), (0.11669922449164233, 0, 0.1370448585371105, 0), (0.6091029047966003, 0, 3.2812206745147705, 1) ),
            94: ( (1.2339647511887706, 0, -1.0184944921489318, 0), (0, 0.18, 0, 0), (0.11458063036675482, 0, 0.13882103450873667, 0), (0.6169967651367188, 0, 3.290644884109497, 1) ),
            95: ( (1.2444889266617765, 0, -1.005607891986381, 0), (0, 0.18, 0, 0), (0.11313088784846784, 0, 0.14000500424944984, 0), (0.6222582459449768, 0, 3.2970938682556152, 1) ),
            96: ( (1.2498766247450448, 0, -0.998903693904191, 0), (0, 0.18, 0, 0), (0.11237666556422148, 0, 0.14061112028381753, 0), (0.6249516606330872, 0, 3.3004493713378906, 1) ),
            97: ( (1.2502129437866387, 0, -0.9984826540919471, 0), (0, 0.18, 0, 0), (0.11232929858534405, 0, 0.14064895617599685, 0), (0.6251192092895508, 0, 3.3006603717803955, 1) ),
            98: ( (1.2455359228750127, 0, -1.0043108118472333, 0), (0, 0.18, 0, 0), (0.11298496633281374, 0, 0.1401227913234389, 0), (0.622779905796051, 0, 3.2977449893951416, 1) ),
            99: ( (1.235838253188851, 0, -1.0162204418931253, 0), (0, 0.18, 0, 0), (0.1143247997129766, 0, 0.13903180348374572, 0), (0.6179307103157043, 0, 3.2917866706848145, 1) ),
            100: ( (1.2210748795417403, 0, -1.033913032354502, 0), (0, 0.18, 0, 0), (0.11631521613988148, 0, 0.13737092394844577, 0), (0.610548198223114, 0, 3.2829344272613525, 1) ),
            101: ( (1.201174743524723, 0, -1.0569670425005029, 0), (0, 0.18, 0, 0), (0.11890879228130657, 0, 0.13513215864653133, 0), (0.6005975604057312, 0, 3.2713990211486816, 1) ),
            102: ( (1.1760605125614234, 0, -1.084841729398761, 0), (0, 0.18, 0, 0), (0.1220446945573606, 0, 0.13230680766316014, 0), (0.5880396366119385, 0, 3.2574515342712402, 1) ),
            103: ( (1.1456665400223274, 0, -1.1168922323796608, 0), (0, 0.18, 0, 0), (0.12565037614271182, 0, 0.1288874857525118, 0), (0.572842001914978, 0, 3.2414133548736572, 1) ),
            104: ( (1.1099633830303646, 0, -1.1523807881847803, 0), (0, 0.18, 0, 0), (0.12964283867078777, 0, 0.124870880590916, 0), (0.5549896359443665, 0, 3.22365403175354, 1) ),
            105: ( (1.0689819042631712, 0, -1.1904948909629411, 0), (0, 0.18, 0, 0), (0.13393067523333088, 0, 0.12026046422960675, 0), (0.534498929977417, 0, 3.2045798301696777, 1) ),
            106: ( (1.0228376050722063, 0, -1.2303672059382906, 0), (0, 0.18, 0, 0), (0.13841631066805768, 0, 0.1150692305706232, 0), (0.5114275813102722, 0, 3.1846249103546143, 1) ),
            107: ( (0.9717537761619242, 0, -1.271099811029444, 0), (0, 0.18, 0, 0), (0.14299872874081246, 0, 0.10932229981821645, 0), (0.4858870804309845, 0, 3.1642377376556396, 1) ),
            108: ( (0.9160823412617788, 0, -1.3117901518044848, 0), (0, 0.18, 0, 0), (0.14757639207800452, 0, 0.10305926339195011, 0), (0.4580540359020233, 0, 3.1438705921173096, 1) ),
            109: ( (0.8563209542349768, 0, -1.3515600010942934, 0), (0, 0.18, 0, 0), (0.152050500123108, 0, 0.09633610735143489, 0), (0.4281775653362274, 0, 3.12396240234375, 1) ),
            110: ( (0.7931230252771911, 0, -1.3895883923067232, 0), (0, 0.18, 0, 0), (0.15632869413450634, 0, 0.089226340343684, 0), (0.3965842127799988, 0, 3.1049251556396484, 1) ),
            111: ( (0.727298486562313, 0, -1.425144517010972, 0), (0, 0.18, 0, 0), (0.16032875816373432, 0, 0.08182107973826021, 0), (0.3636791408061981, 0, 3.087123394012451, 1) ),
            112: ( (0.6597995207279382, 0, -1.4576230538853907, 0), (0, 0.18, 0, 0), (0.16398259356210643, 0, 0.07422744608189305, 0), (0.32993844151496887, 0, 3.0708603858947754, 1) ),
            113: ( (0.5916923428168502, 0, -1.486573352366554, 0), (0, 0.18, 0, 0), (0.1672395021412373, 0, 0.06656538856689564, 0), (0.2958945631980896, 0, 3.056361675262451, 1) ),
            114: ( (0.5241005500625647, 0, -1.5117270710023263, 0), (0, 0.18, 0, 0), (0.1700692954877617, 0, 0.05896131188203853, 0), (0.2621099650859833, 0, 3.0437605381011963, 1) ),
            115: ( (0.458128001207615, 0, -1.5330096633699442, 0), (0, 0.18, 0, 0), (0.1724635871291187, 0, 0.05153940013585668, 0), (0.22913578152656555, 0, 3.0330936908721924, 1) ),
            116: ( (0.3947449115679774, 0, -1.5505409210702965, 0), (0, 0.18, 0, 0), (0.17443585362040834, 0, 0.04440880255139745, 0), (0.1974576711654663, 0, 3.024301290512085, 1) ),
            117: ( (0.33464355117984046, 0, -1.5646129353848097, 0), (0, 0.18, 0, 0), (0.17601895523079109, 0, 0.03764739950773204, 0), (0.16742151975631714, 0, 3.0172371864318848, 1) ),
            118: ( (0.2780652538807772, 0, -1.575652293706753, 0), (0, 0.18, 0, 0), (0.1772608830420097, 0, 0.03128234106158743, 0), (0.1391477882862091, 0, 3.011690855026245, 1) ),
            119: ( (0.22463736253557728, 0, -1.584152262419957, 0), (0, 0.18, 0, 0), (0.17821712952224517, 0, 0.025271703285252443, 0), (0.11244871467351913, 0, 3.007418632507324, 1) ),
            120: ( (0.17328323172509955, 0, -1.5905889845219008, 0), (0, 0.18, 0, 0), (0.17894126075871383, 0, 0.0194943635690737, 0), (0.08678486198186874, 0, 3.0041885375976562, 1) ),
            121: ( (0.1223138188629946, 0, -1.5953181521098032, 0), (0, 0.18, 0, 0), (0.17947329211235286, 0, 0.013760304622086892, 0), (0.06130961328744888, 0, 3.0018272399902344, 1) ),
            122: ( (0.06973058557240393, 0, -1.5984799363074444, 0), (0, 0.18, 0, 0), (0.17982899283458748, 0, 0.007844690876895441, 0), (0.035022251307964325, 0, 3.000265121459961, 1) ),
            123: ( (0.013660338758018043, 0, -1.5999417903425184, 0), (0, 0.18, 0, 0), (0.1799934514135333, 0, 0.0015367881102770298, 0), (0.006986329331994057, 0, 2.999565839767456, 1) ),
            124: ( (-0.04726655689996733, 0, -1.5993016266620772, 0), (0, 0.18, 0, 0), (0.17992143299948365, 0, -0.005317487651246324, 0), (-0.02348223514854908, 0, 2.9999239444732666, 1) ),
            125: ( (-0.11373244311881764, 0, -1.5959526585213781, 0), (0, 0.18, 0, 0), (0.17954467408365501, 0, -0.012794899850866983, 0), (-0.0567232221364975, 0, 3.0016391277313232, 1) ),
            126: ( (-0.18573955002958656, 0, -1.5891826132668598, 0), (0, 0.18, 0, 0), (0.1787830439925217, 0, -0.020895699378328487, 0), (-0.09273684024810791, 0, 3.005064010620117, 1) ),
            127: ( (-0.2627295512953879, 0, -1.5782820586484831, 0), (0, 0.18, 0, 0), (0.17755673159795435, 0, -0.029557074520731134, 0), (-0.13124386966228485, 0, 3.010552167892456, 1) ),
            128: ( (-0.34373754868103107, 0, -1.5626404101304274, 0), (0, 0.18, 0, 0), (0.1757970461396731, 0, -0.03867047422661599, 0), (-0.171762153506279, 0, 3.01840877532959, 1) ),
            129: ( (-0.4275375144343457, 0, -1.541821039932836, 0), (0, 0.18, 0, 0), (0.17345486699244403, 0, -0.04809797037386389, 0), (-0.21367931365966797, 0, 3.0288522243499756, 1) ),
            130: ( (-0.5127678002347239, 0, -1.5156087501574804, 0), (0, 0.18, 0, 0), (0.17050598439271653, 0, -0.05768637752640643, 0), (-0.2563139498233795, 0, 3.041990041732788, 1) ),
            131: ( (-0.5980262295696889, 0, -1.4840369080659686, 0), (0, 0.18, 0, 0), (0.16695415215742143, 0, -0.06727795082659, 0), (-0.29896506667137146, 0, 3.057805299758911, 1) ),
            132: ( (-0.681949073143369, 0, -1.4473928363491269, 0), (0, 0.18, 0, 0), (0.16283169408927675, 0, -0.076719270728629, 0), (-0.3409501910209656, 0, 3.0761539936065674, 1) ),
            133: ( (-0.7632681369963393, 0, -1.4062086967942378, 0), (0, 0.18, 0, 0), (0.15819847838935175, 0, -0.08586766541208816, 0), (-0.38163435459136963, 0, 3.0967695713043213, 1) ),
            134: ( (-0.840847472984433, 0, -1.361240719494606, 0), (0, 0.18, 0, 0), (0.15313958094314314, 0, -0.0945953407107487, 0), (-0.420448899269104, 0, 3.1192739009857178, 1) ),
            135: ( (-0.9137154729586201, 0, -1.313440198452986, 0), (0, 0.18, 0, 0), (0.14776202232596092, 0, -0.10279299070784474, 0), (-0.45690643787384033, 0, 3.1431915760040283, 1) ),
            136: ( (-0.9810786214890413, 0, -1.2639164799702485, 0), (0, 0.18, 0, 0), (0.14219060399665295, 0, -0.11037134491751714, 0), (-0.49060967564582825, 0, 3.1679677963256836, 1) ),
            137: ( (-1.0423343873511954, 0, -1.2138943449932584, 0), (0, 0.18, 0, 0), (0.13656311381174155, 0, -0.11726261857700947, 0), (-0.5212554931640625, 0, 3.192990303039551, 1) ),
            138: ( (-1.0970693512007643, 0, -1.1646626421746704, 0), (0, 0.18, 0, 0), (0.1310245472446504, 0, -0.12342030201008597, 0), (-0.5486369132995605, 0, 3.2176153659820557, 1) ),
            139: ( (-1.1450554484249664, 0, -1.1175187790034784, 0), (0, 0.18, 0, 0), (0.1257208626378913, 0, -0.12881873794780874, 0), (-0.5726391673088074, 0, 3.241194248199463, 1) ),
            140: ( (-1.1862294939507139, 0, -1.0737128499589517, 0), (0, 0.18, 0, 0), (0.12079269562038206, 0, -0.1334508180694553, 0), (-0.5932313203811646, 0, 3.2631027698516846, 1) ),
            141: ( (-1.2206680626723143, 0, -1.0343935096381984, 0), (0, 0.18, 0, 0), (0.11636926983429731, 0, -0.13732515705063533, 0), (-0.6104516983032227, 0, 3.282766342163086, 1) ),
            142: ( (-1.2485423907591326, 0, -1.000570629115981, 0), (0, 0.18, 0, 0), (0.11256419577554787, 0, -0.14046101896040242, 0), (-0.6243877410888672, 0, 3.2996809482574463, 1) ),
            143: ( (-1.2700808607507499, 0, -0.9730857443671994, 0), (0, 0.18, 0, 0), (0.10947214624130992, 0, -0.14288409683445932, 0), (-0.6351539492607117, 0, 3.3134255409240723, 1) ),
            144: ( (-1.2855173222724376, 0, -0.9525992594201171, 0), (0, 0.18, 0, 0), (0.10716741668476316, 0, -0.1446206987556492, 0), (-0.642869234085083, 0, 3.3236701488494873, 1) ),
            145: ( (-1.2950575520084842, 0, -0.9395884191295409, 0), (0, 0.18, 0, 0), (0.10570369715207334, 0, -0.14569397460095443, 0), (-0.6476367712020874, 0, 3.330176830291748, 1) ),
            146: ( (-1.2988435602286814, 0, -0.9343478100664129, 0), (0, 0.18, 0, 0), (0.10511412863247145, 0, -0.14611990052572665, 0), (-0.6495286822319031, 0, 3.3327975273132324, 1) ),
            147: ( (-1.296934458250371, 0, -0.9369963706109274, 0), (0, 0.18, 0, 0), (0.10541209169372934, 0, -0.14590512655316673, 0), (-0.6485743522644043, 0, 3.3314731121063232, 1) ),
            148: ( (-1.2892963643173063, 0, -0.9474783912679187, 0), (0, 0.18, 0, 0), (0.10659131901764084, 0, -0.14504584098569692, 0), (-0.6447568535804749, 0, 3.3262314796447754, 1) ),
            149: ( (-1.2758091264353426, 0, -0.965563164618743, 0), (0, 0.18, 0, 0), (0.10862585601960859, 0, -0.14352852672397604, 0), (-0.6380155086517334, 0, 3.317187786102295, 1) ),
            150: ( (-1.2562789081971006, 0, -0.9908402888263709, 0), (0, 0.18, 0, 0), (0.11146953249296672, 0, -0.14133137717217378, 0), (-0.6282534003257751, 0, 3.3045473098754883, 1) ),
            151: ( (-1.2304686528646926, 0, -1.022715524268574, 0), (0, 0.18, 0, 0), (0.11505549648021457, 0, -0.1384277234472779, 0), (-0.6153504252433777, 0, 3.288606882095337, 1) ),
            152: ( (-1.1981356677961343, 0, -1.0604108715726681, 0), (0, 0.18, 0, 0), (0.11929622305192517, 0, -0.13479026262706512, 0), (-0.5991841554641724, 0, 3.2697556018829346, 1) ),
            153: ( (-1.1590747766145797, 0, -1.1029712657521942, 0), (0, 0.18, 0, 0), (0.12408426739712183, 0, -0.1303959123691402, 0), (-0.5796506404876709, 0, 3.2484703063964844, 1) ),
            154: ( (-1.113166633177127, 0, -1.1492873340713061, 0), (0, 0.18, 0, 0), (0.12929482508302192, 0, -0.1252312462324268, 0), (-0.5566889643669128, 0, 3.2253057956695557, 1) ),
            155: ( (-1.0604182466535463, 0, -1.1981288933951135, 0), (0, 0.18, 0, 0), (0.13478950050695027, 0, -0.11929705274852395, 0), (-0.5303035378456116, 0, 3.200876235961914, 1) ),
            156: ( (-1.0010034103412182, 0, -1.2481962568239398, 0), (0, 0.18, 0, 0), (0.1404220788926932, 0, -0.11261288366338704, 0), (-0.5005796551704407, 0, 3.1758315563201904, 1) ),
            157: ( (-0.9352774213899466, 0, -1.2981743667980483, 0), (0, 0.18, 0, 0), (0.1460446162647804, 0, -0.10521870990636899, 0), (-0.4676967263221741, 0, 3.1508283615112305, 1) ),
            158: ( (-0.8637947119521869, 0, -1.3467960188426789, 0), (0, 0.18, 0, 0), (0.15151455211980133, 0, -0.09717690509462101, 0), (-0.43193215131759644, 0, 3.126500368118286, 1) ),
            159: ( (-0.78730044595751, 0, -1.3928960298220887, 0), (0, 0.18, 0, 0), (0.15670080335498496, 0, -0.08857130017021987, 0), (-0.39366015791893005, 0, 3.1034302711486816, 1) ),
            160: ( (-0.7067214497021382, 0, -1.4354603060582463, 0), (0, 0.18, 0, 0), (0.1614892844315527, 0, -0.07950616309149054, 0), (-0.3533451557159424, 0, 3.082124710083008, 1) ),
            161: ( (-0.6231437790622295, 0, -1.4736661675284268, 0), (0, 0.18, 0, 0), (0.165787443846948, 0, -0.0701036751445008, 0), (-0.3115319609642029, 0, 3.062995672225952, 1) ),
            162: ( (-0.5377854512397334, 0, -1.506913109033917, 0), (0, 0.18, 0, 0), (0.16952772476631564, 0, -0.06050086326447001, 0), (-0.26882970333099365, 0, 3.0463433265686035, 1) ),
            163: ( (-0.4519503283767449, 0, -1.5348423765182817, 0), (0, 0.18, 0, 0), (0.17266976735830666, 0, -0.050844411942383795, 0), (-0.2258913367986679, 0, 3.0323474407196045, 1) ),
            164: ( (-0.3669747631280643, 0, -1.5573470524122968, 0), (0, 0.18, 0, 0), (0.17520154339638339, 0, -0.04128466085190723, 0), (-0.18338578939437866, 0, 3.021061897277832, 1) ),
            165: ( (-0.2841573015857762, 0, -1.5745648497743332, 0), (0, 0.18, 0, 0), (0.17713854559961248, 0, -0.03196769642839982, 0), (-0.14196203649044037, 0, 3.012418270111084, 1) ),
            166: ( (-0.20466906620996497, 0, -1.586855962563368, 0), (0, 0.18, 0, 0), (0.1785212957883789, 0, -0.023025269948621058, 0), (-0.1022052988409996, 0, 3.0062367916107178, 1) ),
            167: ( (-0.12944520665623713, 0, -1.594755237033496, 0), (0, 0.18, 0, 0), (0.1794099641662683, 0, -0.014562585748826677, 0), (-0.06458360701799393, 0, 3.0022501945495605, 1) ),
            168: ( (-0.05907047543806812, 0, -1.5989093222472777, 0), (0, 0.18, 0, 0), (0.17987729875281872, 0, -0.006645428486782663, 0), (-0.02938907779753208, 0, 3.000136613845825, 1) ),
            169: ( (0.006338854038040154, 0, -1.5999875974712268, 0), (0, 0.18, 0, 0), (0.17999860471551302, 0, 0.0007131210792795172, 0), (0.0033202313352376223, 0, 2.9995625019073486, 1) ),
            170: ( (0.06721926854478398, 0, -1.598587392405534, 0), (0, 0.18, 0, 0), (0.17984108164562257, 0, 0.007562167711288197, 0), (0.033761363476514816, 0, 3.000232696533203, 1) ),
            171: ( (0.12455474287012294, 0, -1.5951446660699276, 0), (0, 0.18, 0, 0), (0.17945377493286685, 0, 0.01401240857288883, 0), (0.062426164746284485, 0, 3.0019328594207764, 1) ),
            172: ( (0.17974793715446824, 0, -1.5898713187367095, 0), (0, 0.18, 0, 0), (0.1788605233578798, 0, 0.020221642929877673, 0), (0.09001500904560089, 0, 3.004560947418213, 1) ),
            173: ( (0.23434860149409362, 0, -1.5827445943080876, 0), (0, 0.18, 0, 0), (0.17805876685965982, 0, 0.02636421766808553, 0), (0.11730434000492096, 0, 3.0081286430358887, 1) ),
            174: ( (0.28974144375461036, 0, -1.5735469149882193, 0), (0, 0.18, 0, 0), (0.17702402793617467, 0, 0.032595912422393666, 0), (0.14498721063137054, 0, 3.012742042541504, 1) ),
            175: ( (0.3468905208693741, 0, -1.561943468737013, 0), (0, 0.18, 0, 0), (0.17571864023291398, 0, 0.03902518359780458, 0), (0.17354756593704224, 0, 3.0185656547546387, 1) ),
            176: ( (0.40623316342997673, 0, -1.5475705257417987, 0), (0, 0.18, 0, 0), (0.17410168414595234, 0, 0.04570123088587238, 0), (0.20320455729961395, 0, 3.0257768630981445, 1) ),
            177: ( (0.4677006443455753, 0, -1.530116328809811, 0), (0, 0.18, 0, 0), (0.17213808699110372, 0, 0.05261632248887722, 0), (0.2339247614145279, 0, 3.0345301628112793, 1) ),
            178: ( (0.5308262109051498, 0, -1.5093786602019805, 0), (0, 0.18, 0, 0), (0.1698050992727228, 0, 0.05971794872682935, 0), (0.26547545194625854, 0, 3.0449249744415283, 1) ),
            179: ( (0.5948763239337381, 0, -1.4853022255791757, 0), (0, 0.18, 0, 0), (0.16709650037765725, 0, 0.06692358644254554, 0), (0.297489196062088, 0, 3.056988000869751, 1) ),
            180: ( (0.658967899820516, 0, -1.4579991482071364, 0), (0, 0.18, 0, 0), (0.16402490417330284, 0, 0.07413388872980803, 0), (0.3295249342918396, 0, 3.070664644241333, 1) ),
            181: ( (0.7221719994754949, 0, -1.4277490293052097, 0), (0, 0.18, 0, 0), (0.16062176579683607, 0, 0.08124434994099317, 0), (0.3611184060573578, 0, 3.0858137607574463, 1) ),
        }
        uniform token[] xformOpOrder = ["xformOp:transform"]
    }

    def Cube "lower"
    {
        color3f[] primvars:displayColor = [(1, 0.7294118, 0.45882353)]
        custom int reel:bodyIndex = 1
        double size = 1
        matrix4d xformOp:transform.timeSamples = {
            1: ( (1.3640392472544336, 0, -0.8362995231121033, 0), (0, 0.18, 0, 0), (0.09408369635011161, 0, 0.15345441531612375, 0), (2.0460586547851562, 0, 2.54555082321167, 1) ),
            2: ( (1.3644702308852972, 0, -0.8355961711455507, 0), (0, 0.18, 0, 0), (0.09400456925387445, 0, 0.1535029009745959, 0), (2.0433433055877686, 0, 2.5409340858459473, 1) ),
            3: ( (1.3656819086039833, 0, -0.833614420703725, 0), (0, 0.18, 0, 0), (0.09378162232916906, 0, 0.1536392147179481, 0), (2.035346269607544, 0, 2.5281317234039307, 1) ),
            4: ( (1.367558496273523, 0, -0.8305321993771031, 0), (0, 0.18, 0, 0), (0.0934348724299241, 0, 0.15385033083077132, 0), (2.0218992233276367, 0, 2.5073091983795166, 1) ),
            5: ( (1.3699189891918195, 0, -0.8266329234548494, 0), (0, 0.18, 0, 0), (0.09299620388867055, 0, 0.15411588628407968, 0), (2.0026206970214844, 0, 2.478797435760498, 1) ),
            6: ( (1.3724867873095719, 0, -0.8223625444938989, 0), (0, 0.18, 0, 0), (0.09251578625556363, 0, 0.15440476357232683, 0), (1.9770125150680542, 0, 2.4430558681488037, 1) ),
            7: ( (1.3748735620420918, 0, -0.8183659207395522, 0), (0, 0.18, 0, 0), (0.09206616608319962, 0, 0.1546732757297353, 0), (1.9445037841796875, 0, 2.4006576538085938, 1) ),
            8: ( (1.3765654037128543, 0, -0.8155168711985141, 0), (0, 0.18, 0, 0), (0.09174564800983283, 0, 0.1548636079176961, 0), (1.904506802558899, 0, 2.352276086807251, 1) ),
            9: ( (1.3769182656975063, 0, -0.8149209543471102, 0), (0, 0.18, 0, 0), (0.0916786073640499, 0, 0.15490330489096943, 0), (1.8564741611480713, 0, 2.298654556274414, 1) ),
            10: ( (1.3751588521991807, 0, -0.8178864043831879, 0), (0, 0.18, 0, 0), (0.09201222049310864, 0, 0.15470537087240782, 0), (1.7999545335769653, 0, 2.2405807971954346, 1) ),
            11: ( (1.370389989571129, 0, -0.8258518355864908, 0), (0, 0.18, 0, 0), (0.09290833150348021, 0, 0.15416887382675198, 0), (1.734635829925537, 0, 2.1788551807403564, 1) ),
            12: ( (1.361585608572102, 0, -0.8402884789616565, 0), (0, 0.18, 0, 0), (0.09453245388318635, 0, 0.15317838096436148, 0), (1.6603676080703735, 0, 2.114269495010376, 1) ),
            13: ( (1.3475780545620382, 0, -0.8625737384606567, 0), (0, 0.18, 0, 0), (0.09703954557682387, 0, 0.15160253113822927, 0), (1.5771607160568237, 0, 2.0475943088531494, 1) ),
            14: ( (1.327030215072307, 0, -0.8938628497263154, 0), (0, 0.18, 0, 0), (0.10055957059421046, 0, 0.1492908991956345, 0), (1.4851691722869873, 0, 1.979577660560608, 1) ),
            15: ( (1.2984025338710923, 0, -0.9349603954931922, 0), (0, 0.18, 0, 0), (0.10518304449298412, 0, 0.14607028506049785, 0), (1.384660243988037, 0, 1.9109573364257812, 1) ),
            16: ( (1.2599302202075677, 0, -0.9861925962899818, 0), (0, 0.18, 0, 0), (0.11094666708262295, 0, 0.14174214977335137, 0), (1.2759817838668823, 0, 1.8424807786941528, 1) ),
            17: ( (1.209622733488766, 0, -1.0472882936088355, 0), (0, 0.18, 0, 0), (0.11781993303099397, 0, 0.13608255751748616, 0), (1.1595319509506226, 0, 1.774933934211731, 1) ),
            18: ( (1.145307554648136, 0, -1.1172602740324464, 0), (0, 0.18, 0, 0), (0.1256917808286502, 0, 0.12884709989791526, 0), (1.0357412099838257, 0, 1.709174633026123, 1) ),
            19: ( (1.0647328375211147, 0, -1.1942964014852806, 0), (0, 0.18, 0, 0), (0.13435834516709405, 0, 0.11978244422112538, 0), (0.9050629138946533, 0, 1.646175742149353, 1) ),
            20: ( (0.9657383945551118, 0, -1.2756761064621516, 0), (0, 0.18, 0, 0), (0.14351356197699203, 0, 0.10864556938745007, 0), (0.7679806351661682, 0, 1.5870723724365234, 1) ),
            21: ( (0.8465222299986153, 0, -1.3577187965105282, 0), (0, 0.18, 0, 0), (0.1527433646074344, 0, 0.0952337508748442, 0), (0.6250342130661011, 0, 1.5332090854644775, 1) ),
            22: ( (0.7059958864454416, 0, -1.4358167140767364, 0), (0, 0.18, 0, 0), (0.16152938033363284, 0, 0.07942453722511217, 0), (0.4768664836883545, 0, 1.4861804246902466, 1) ),
            23: ( (0.5442425352433474, 0, -1.5045931128846632, 0), (0, 0.18, 0, 0), (0.1692667251995246, 0, 0.06122728521487659, 0), (0.32429108023643494, 0, 1.4478325843811035, 1) ),
            24: ( (0.36302953731409393, 0, -1.558271562555524, 0), (0, 0.18, 0, 0), (0.17530555078749643, 0, 0.04084082294783556, 0), (0.1683742105960846, 0, 1.4201892614364624, 1) ),
            25: ( (0.16625057461637882, 0, -1.5913394181783589, 0), (0, 0.18, 0, 0), (0.17902568454506534, 0, 0.018703189644342613, 0), (0.010502749122679234, 0, 1.4052485227584839, 1) ),
            26: ( (-0.03996809457971722, 0, -1.5995009429485663, 0), (0, 0.18, 0, 0), (0.1799438560817137, 0, -0.004496410640218187, 0), (-0.14761121571063995, 0, 1.4046257734298706, 1) ),
            27: ( (-0.24781031468305628, 0, -1.5806929923571262, 0), (0, 0.18, 0, 0), (0.17782796164017667, 0, -0.02787866040184383, 0), (-0.30404001474380493, 0, 1.4191268682479858, 1) ),
            28: ( (-0.4490152014622368, 0, -1.5357038194293295, 0), (0, 0.18, 0, 0), (0.17276667968579956, 0, -0.05051421016450163, 0), (-0.4568662941455841, 0, 1.448447823524475, 1) ),
            29: ( (-0.6363796361842561, 0, -1.4679991754907862, 0), (0, 0.18, 0, 0), (0.16514990724271342, 0, -0.0715927090707288, 0), (-0.6044352650642395, 0, 1.4911985397338867, 1) ),
            30: ( (-0.8048345579886246, 0, -1.3828380483696947, 0), (0, 0.18, 0, 0), (0.15556928044159066, 0, -0.09054388777372026, 0), (-0.7455134987831116, 0, 1.5452357530593872, 1) ),
            31: ( (-0.9517373686016527, 0, -1.2861558476924757, 0), (0, 0.18, 0, 0), (0.1446925328654035, 0, -0.10707045396768591, 0), (-0.8793067932128906, 0, 1.6081072092056274, 1) ),
            32: ( (-1.0765406076392652, 0, -1.1836640967009318, 0), (0, 0.18, 0, 0), (0.1331622108788548, 0, -0.12111081835941732, 0), (-1.0053802728652954, 0, 1.6774051189422607, 1) ),
            33: ( (-1.1802132118927262, 0, -1.0803227143880805, 0), (0, 0.18, 0, 0), (0.12153630536865904, 0, -0.1327739863379317, 0), (-1.1235483884811401, 0, 1.7509580850601196, 1) ),
            34: ( (-1.2646564250732355, 0, -0.9801247645188482, 0), (0, 0.18, 0, 0), (0.11026403600837043, 0, -0.14227384782073899, 0), (-1.2337772846221924, 0, 1.8268965482711792, 1) ),
            35: ( (-1.332242716731537, 0, -0.8860748273899333, 0), (0, 0.18, 0, 0), (0.09968341808136749, 0, -0.1498773056322979, 0), (-1.3361178636550903, 0, 1.9036399126052856, 1) ),
            36: ( (-1.3854847007883224, 0, -0.8002708321512216, 0), (0, 0.18, 0, 0), (0.09003046861701243, 0, -0.15586702883868625, 0), (-1.4306646585464478, 0, 1.9798567295074463, 1) ),
            37: ( (-1.4268078490342306, 0, -0.7240302716812267, 0), (0, 0.18, 0, 0), (0.08145340556413799, 0, -0.16051588301635092, 0), (-1.5175302028656006, 0, 2.054417371749878, 1) ),
            38: ( (-1.4584248766077623, 0, -0.6580257550834148, 0), (0, 0.18, 0, 0), (0.07402789744688416, 0, -0.16407279861837323, 0), (-1.5968389511108398, 0, 2.1263511180877686, 1) ),
            39: ( (-1.482256964204237, 0, -0.6024236858269063, 0), (0, 0.18, 0, 0), (0.06777266465552696, 0, -0.16675390847297664, 0), (-1.6687231063842773, 0, 2.194814443588257, 1) ),
            40: ( (-1.499915010639336, 0, -0.5570067401835246, 0), (0, 0.18, 0, 0), (0.06266325827064652, 0, -0.1687404386969253, 0), (-1.733323574066162, 0, 2.259064197540283, 1) ),
            41: ( (-1.5127019613378367, 0, -0.5212803563618991, 0), (0, 0.18, 0, 0), (0.05864404009071364, 0, -0.1701789706505066, 0), (-1.7907952070236206, 0, 2.3184404373168945, 1) ),
            42: ( (-1.5216453525380644, 0, -0.49456612367823993, 0), (0, 0.18, 0, 0), (0.05563868891380199, 0, -0.17118510216053223, 0), (-1.8413069248199463, 0, 2.372356653213501, 1) ),
            43: ( (-1.5275306413558156, 0, -0.47607731291790856, 0), (0, 0.18, 0, 0), (0.05355869770326471, 0, -0.17184719715252925, 0), (-1.8850433826446533, 0, 2.4202897548675537, 1) ),
            44: ( (-1.5309449354014875, 0, -0.46498136889221087, 0), (0, 0.18, 0, 0), (0.05231040400037372, 0, -0.17223130523266733, 0), (-1.9222017526626587, 0, 2.461780071258545, 1) ),
            45: ( (-1.5323151751495971, 0, -0.460447284639929, 0), (0, 0.18, 0, 0), (0.05180031952199201, 0, -0.17238545720432966, 0), (-1.9529865980148315, 0, 2.496426582336426, 1) ),
            46: ( (-1.53194116920414, 0, -0.4616899993395833, 0), (0, 0.18, 0, 0), (0.05194012492570312, 0, -0.17234338153546575, 0), (-1.9776005744934082, 0, 2.5238900184631348, 1) ),
            47: ( (-1.5300269557048525, 0, -0.46799370395480083, 0), (0, 0.18, 0, 0), (0.05264929169491509, 0, -0.17212803251679587, 0), (-1.9962326288223267, 0, 2.5438919067382812, 1) ),
            48: ( (-1.5266995120233788, 0, -0.47873804329768177, 0), (0, 0.18, 0, 0), (0.0538580298709892, 0, -0.1717536951026301, 0), (-2.0090441703796387, 0, 2.556217908859253, 1) ),
            49: ( (-1.5220217575946664, 0, -0.49340744000045333, 0), (0, 0.18, 0, 0), (0.055508337000051, 0, -0.17122744772939996, 0), (-2.016155958175659, 0, 2.560722827911377, 1) ),
            50: ( (-1.5160042582978805, 0, -0.5115974989381699, 0), (0, 0.18, 0, 0), (0.0575547186305441, 0, -0.17055047905851153, 0), (-2.0176358222961426, 0, 2.5573313236236572, 1) ),
            51: ( (-1.5086057847780467, 0, -0.5330195521376936, 0), (0, 0.18, 0, 0), (0.05996469961549053, 0, -0.16971815078753025, 0), (-2.0134835243225098, 0, 2.5460410118103027, 1) ),
            52: ( (-1.4997340430995907, 0, -0.5574921709273014, 0), (0, 0.18, 0, 0), (0.0627178692293214, 0, -0.16872007984870394, 0), (-2.003631830215454, 0, 2.5269317626953125, 1) ),
            53: ( (-1.489243965561775, 0, -0.5849391053155103, 0), (0, 0.18, 0, 0), (0.0658056493479949, 0, -0.16753994612569967, 0), (-1.9879364967346191, 0, 2.5001649856567383, 1) ),
            54: ( (-1.4769268917967566, 0, -0.6153755031205947, 0), (0, 0.18, 0, 0), (0.0692297441010669, 0, -0.16615427532713511, 0), (-1.966184377670288, 0, 2.465989351272583, 1) ),
            55: ( (-1.462506154173309, 0, -0.6489046024950511, 0), (0, 0.18, 0, 0), (0.07300176778069324, 0, -0.16453194234449725, 0), (-1.9380978345870972, 0, 2.424745559692383, 1) ),
            56: ( (-1.4456223660221896, 0, -0.685694275197858, 0), (0, 0.18, 0, 0), (0.07714060595975901, 0, -0.1626325161774963, 0), (-1.9033491611480713, 0, 2.37686824798584, 1) ),
            57: ( (-1.425826996367141, 0, -0.7259606008254196, 0), (0, 0.18, 0, 0), (0.08167056759285969, 0, -0.16040553709130334, 0), (-1.8615754842758179, 0, 2.3228893280029297, 1) ),
            58: ( (-1.4025625730654157, 0, -0.7699480368992, 0), (0, 0.18, 0, 0), (0.08661915415115999, 0, -0.15778828946985923, 0), (-1.8123984336853027, 0, 2.263437271118164, 1) ),
            59: ( (-1.3751586589722593, 0, -0.8178878251211359, 0), (0, 0.18, 0, 0), (0.09201238032612778, 0, -0.15470534913437917, 0), (-1.7554444074630737, 0, 2.1992383003234863, 1) ),
            60: ( (-1.342820379474324, 0, -0.8699618013263717, 0), (0, 0.18, 0, 0), (0.09787070264921681, 0, -0.15106729269086144, 0), (-1.6903660297393799, 0, 2.131112575531006, 1) ),
            61: ( (-1.3046346062896306, 0, -0.9262445432548759, 0), (0, 0.18, 0, 0), (0.10420251111617354, 0, -0.14677139320758342, 0), (-1.6168651580810547, 0, 2.0599751472473145, 1) ),
            62: ( (-1.2595699518919106, 0, -0.9866528209309593, 0), (0, 0.18, 0, 0), (0.11099844235473291, 0, -0.14170161958783992, 0), (-1.5347057580947876, 0, 1.9868277311325073, 1) ),
            63: ( (-1.2065111365916097, 0, -1.0508714197829931, 0), (0, 0.18, 0, 0), (0.11822303472558672, 0, -0.13573250286655608, 0), (-1.4437370300292969, 0, 1.9127564430236816, 1) ),
            64: ( (-1.1442997621372342, 0, -1.1182926219757066, 0), (0, 0.18, 0, 0), (0.12580791997226698, 0, -0.12873372324043886, 0), (-1.3439064025878906, 0, 1.8389296531677246, 1) ),
            65: ( (-1.0718021696288929, 0, -1.1879561970992598, 0), (0, 0.18, 0, 0), (0.13364507217366672, 0, -0.12057774408325045, 0), (-1.2352737188339233, 0, 1.7665899991989136, 1) ),
            66: ( (-0.988007870725096, 0, -1.2585075252829938, 0), (0, 0.18, 0, 0), (0.1415820965943368, 0, -0.11115088545657328, 0), (-1.1180280447006226, 0, 1.6970484256744385, 1) ),
            67: ( (-0.8921486515268043, 0, -1.3281835357724958, 0), (0, 0.18, 0, 0), (0.14942064777440578, 0, -0.10036672329676548, 0), (-0.992502748966217, 0, 1.6316697597503662, 1) ),
            68: ( (-0.783846692592772, 0, -1.394842121003137, 0), (0, 0.18, 0, 0), (0.1569197386128529, 0, -0.08818275291668684, 0), (-0.8591952323913574, 0, 1.5718551874160767, 1) ),
            69: ( (-0.6632636999194802, 0, -1.4560500347284688, 0), (0, 0.18, 0, 0), (0.16380562890695272, 0, -0.07461716624094152, 0), (-0.7187840342521667, 0, 1.5190026760101318, 1) ),
            70: ( (-0.5312368849663586, 0, -1.509234446365656, 0), (0, 0.18, 0, 0), (0.16978887521613628, 0, -0.059764149558715327, 0), (-0.5721464157104492, 0, 1.4744569063186646, 1) ),
            71: ( (-0.3893603799065318, 0, -1.5519017042683687, 0), (0, 0.18, 0, 0), (0.17458894173019146, 0, -0.04380304273948482, 0), (-0.4203621745109558, 0, 1.4394384622573853, 1) ),
            72: ( (-0.23998700554503785, 0, -1.581899719112016, 0), (0, 0.18, 0, 0), (0.1779637184001018, 0, -0.026998538123816758, 0), (-0.26470568776130676, 0, 1.4149588346481323, 1) ),
            73: ( (-0.08610213987705038, 0, -1.5976816026503116, 0), (0, 0.18, 0, 0), (0.17973918029816005, 0, -0.009686490736168167, 0), (-0.10661115497350693, 0, 1.4017362594604492, 1) ),
            74: ( (0.06890690207345643, 0, -1.5985157277297617, 0), (0, 0.18, 0, 0), (0.1798330193695982, 0, 0.007752026483263847, 0), (0.05238126590847969, 0, 1.4001259803771973, 1) ),
            75: ( (0.22157157181627554, 0, -1.5845840500744544, 0), (0, 0.18, 0, 0), (0.1782657056333761, 0, 0.024926801829330998, 0), (0.2106996476650238, 0, 1.4100916385650635, 1) ),
            76: ( (0.3686682818863915, 0, -1.5569468863920406, 0), (0, 0.18, 0, 0), (0.17515652471910456, 0, 0.04147518171221904, 0), (0.3668159246444702, 0, 1.4312142133712769, 1) ),
            77: ( (0.5074975176865223, 0, -1.5173816658015653, 0), (0, 0.18, 0, 0), (0.1707054374026761, 0, 0.05709347073973376, 0), (0.5193126797676086, 0, 1.462745189666748, 1) ),
            78: ( (0.6360557023686397, 0, -1.468139327954714, 0), (0, 0.18, 0, 0), (0.1651656743949053, 0, 0.07155626651647196, 0), (0.6669291853904724, 0, 1.5036829710006714, 1) ),
            79: ( (0.7530886471420559, 0, -1.411686058858379, 0), (0, 0.18, 0, 0), (0.15881468162156764, 0, 0.08472247280348127, 0), (0.8085858821868896, 0, 1.552852988243103, 1) ),
            80: ( (0.8580516250954929, 0, -1.350461893823126, 0), (0, 0.18, 0, 0), (0.15192696305510167, 0, 0.09653080782324294, 0), (0.943389356136322, 0, 1.6089835166931152, 1) ),
            81: ( (0.9509988621220942, 0, -1.286701670957632, 0), (0, 0.18, 0, 0), (0.1447539379827336, 0, 0.10698737198873559, 0), (1.070628046989441, 0, 1.6707578897476196, 1) ),
            82: ( (1.032446178979035, 0, -1.2223153467987231, 0), (0, 0.18, 0, 0), (0.13751047651485634, 0, 0.11615019513514141, 0), (1.18975830078125, 0, 1.7368584871292114, 1) ),
            83: ( (1.1032261032206834, 0, -1.1588322386296284, 0), (0, 0.18, 0, 0), (0.1303686268458332, 0, 0.12411293661232686, 0), (1.300394058227539, 0, 1.8059887886047363, 1) ),
            84: ( (1.1643615408055639, 0, -1.097388870108631, 0), (0, 0.18, 0, 0), (0.12345624788722098, 0, 0.13099067334062592, 0), (1.4022924900054932, 0, 1.8768937587738037, 1) ),
            85: ( (1.2169558176215987, 0, -1.0387582081392281, 0), (0, 0.18, 0, 0), (0.11686029841566316, 0, 0.13690752948242985, 0), (1.4953426122665405, 0, 1.9483665227890015, 1) ),
            86: ( (1.2621126491131436, 0, -0.9833981061332566, 0), (0, 0.18, 0, 0), (0.11063228693999136, 0, 0.14198767302522863, 0), (1.5795553922653198, 0, 2.019259452819824, 1) ),
            87: ( (1.3008781436237287, 0, -0.9315128503773225, 0), (0, 0.18, 0, 0), (0.10479519566744876, 0, 0.14634879115766947, 0), (1.6550467014312744, 0, 2.0884907245635986, 1) ),
            88: ( (1.3342058311407954, 0, -0.8831165754959387, 0), (0, 0.18, 0, 0), (0.09935061474329308, 0, 0.15009815600333948, 0), (1.722028374671936, 0, 2.1550536155700684, 1) ),
            89: ( (1.3629362624710553, 0, -0.8380959620563317, 0), (0, 0.18, 0, 0), (0.09428579573133732, 0, 0.15333032952799372, 0), (1.7807830572128296, 0, 2.218022346496582, 1) ),
            90: ( (1.3877907386991752, 0, -0.7962643510974318, 0), (0, 0.18, 0, 0), (0.08957973949846107, 0, 0.1561264581036572, 0), (1.8316482305526733, 0, 2.2765583992004395, 1) ),
            91: ( (1.4093738996860339, 0, -0.7574068641690247, 0), (0, 0.18, 0, 0), (0.08520827221901527, 0, 0.1585545637146788, 0), (1.874993085861206, 0, 2.329918146133423, 1) ),
            92: ( (1.428180349757019, 0, -0.7213188972341072, 0), (0, 0.18, 0, 0), (0.08114837593883706, 0, 0.1606702893476646, 0), (1.911193609237671, 0, 2.3774540424346924, 1) ),
            93: ( (1.4446081506512856, 0, -0.6878279718870943, 0), (0, 0.18, 0, 0), (0.0773806468372981, 0, 0.1625184169482696, 0), (1.9406116008758545, 0, 2.418621063232422, 1) ),
            94: ( (1.4589679744135424, 0, -0.6568199437098315, 0), (0, 0.18, 0, 0), (0.07389224366735604, 0, 0.16413389712152351, 0), (1.963575005531311, 0, 2.4529693126678467, 1) ),
            95: ( (1.471496572470249, 0, -0.6282498425521255, 0), (0, 0.18, 0, 0), (0.0706781072871141, 0, 0.165543364402903, 0), (1.9803601503372192, 0, 2.480149745941162, 1) ),
            96: ( (1.4823653621171815, 0, -0.602156881331689, 0), (0, 0.18, 0, 0), (0.06774264914981501, 0, 0.16676610323818292, 0), (1.9911805391311646, 0, 2.499905824661255, 1) ),
            97: ( (1.491690295099167, 0, -0.5786709612202401, 0), (0, 0.18, 0, 0), (0.06510048313727701, 0, 0.16781515819865628, 0), (1.9961789846420288, 0, 2.512071132659912, 1) ),
            98: ( (1.4995370166953508, 0, -0.5580221568812135, 0), (0, 0.18, 0, 0), (0.06277749264913651, 0, 0.16869791437822695, 0), (1.9954266548156738, 0, 2.516566038131714, 1) ),
            99: ( (1.5059248431254837, 0, -0.5405463605382806, 0), (0, 0.18, 0, 0), (0.06081146556055657, 0, 0.1694165448516169, 0), (1.9889256954193115, 0, 2.513389825820923, 1) ),
            100: ( (1.51082741601927, 0, -0.5266882620605315, 0), (0, 0.18, 0, 0), (0.059252429481809796, 0, 0.16996808430216787, 0), (1.9766181707382202, 0, 2.502617835998535, 1) ),
            101: ( (1.5141700662669557, 0, -0.5170000199646466, 0), (0, 0.18, 0, 0), (0.05816250224602274, 0, 0.1703441324550325, 0), (1.9583951234817505, 0, 2.484395980834961, 1) ),
            102: ( (1.5158218086819084, 0, -0.5121369294846119, 0), (0, 0.18, 0, 0), (0.05761540456701883, 0, 0.17052995347671468, 0), (1.9341129064559937, 0, 2.458937644958496, 1) ),
            103: ( (1.515583825292913, 0, -0.5128407807492863, 0), (0, 0.18, 0, 0), (0.05769458783429471, 0, 0.1705031803454527, 0), (1.9036071300506592, 0, 2.426515817642212, 1) ),
            104: ( (1.5131696336571332, 0, -0.5199208520672614, 0), (0, 0.18, 0, 0), (0.05849109585756689, 0, 0.17023158378642747, 0), (1.8667041063308716, 0, 2.3874642848968506, 1) ),
            105: ( (1.5081792498796227, 0, -0.5342241119117063, 0), (0, 0.18, 0, 0), (0.060100212590066954, 0, 0.16967016561145754, 0), (1.8232355117797852, 0, 2.342172384262085, 1) ),
            106: ( (1.5000681685436683, 0, -0.5565927867638323, 0), (0, 0.18, 0, 0), (0.06261668851093112, 0, 0.16875766896116268, 0), (1.7730438709259033, 0, 2.291085720062256, 1) ),
            107: ( (1.4881086974615862, 0, -0.5878201720096143, 0), (0, 0.18, 0, 0), (0.06612976935108161, 0, 0.16741222846442844, 0), (1.7159888744354248, 0, 2.2347066402435303, 1) ),
            108: ( (1.4713506571312764, 0, -0.6285915144545527, 0), (0, 0.18, 0, 0), (0.07071654537613717, 0, 0.16552694892726857, 0), (1.6519474983215332, 0, 2.1735951900482178, 1) ),
            109: ( (1.448587223548745, 0, -0.6794078795966982, 0), (0, 0.18, 0, 0), (0.07643338645462855, 0, 0.1629660626492338, 0), (1.5808141231536865, 0, 2.108379602432251, 1) ),
            110: ( (1.4183262490068664, 0, -0.7405070369743015, 0), (0, 0.18, 0, 0), (0.08330704165960892, 0, 0.15956170301327247, 0), (1.5024957656860352, 0, 2.0397636890411377, 1) ),
            111: ( (1.3787850224931135, 0, -0.8117585016834141, 0), (0, 0.18, 0, 0), (0.09132283143938409, 0, 0.15511331503047526, 0), (1.4169119596481323, 0, 1.9685428142547607, 1) ),
            112: ( (1.3279110718808143, 0, -0.8925537243260578, 0), (0, 0.18, 0, 0), (0.1004122939866815, 0, 0.14938999558659158, 0), (1.3239879608154297, 0, 1.8956270217895508, 1) ),
            113: ( (1.263445605040053, 0, -0.9816848852862847, 0), (0, 0.18, 0, 0), (0.11043954959470703, 0, 0.14213763056700596, 0), (1.223659873008728, 0, 1.82207190990448, 1) ),
            114: ( (1.1830510126319382, 0, -1.0772141409978075, 0), (0, 0.18, 0, 0), (0.12118659086225335, 0, 0.13309323892109304, 0), (1.1158826351165771, 0, 1.7491135597229004, 1) ),
            115: ( (1.0845083341871231, 0, -1.1763680575754905, 0), (0, 0.18, 0, 0), (0.13234140647724266, 0, 0.12200718759605134, 0), (1.0006492137908936, 0, 1.678212285041809, 1) ),
            116: ( (0.9660187560537878, 0, -1.2754638334994242, 0), (0, 0.18, 0, 0), (0.1434896812686852, 0, 0.10867711005605113, 0), (0.8780291080474854, 0, 1.6110904216766357, 1) ),
            117: ( (0.8266125542107347, 0, -1.3699313828026902, 0), (0, 0.18, 0, 0), (0.15411728056530263, 0, 0.09299391234870764, 0), (0.7482264637947083, 0, 1.5497403144836426, 1) ),
            118: ( (0.6666594996095114, 0, -1.4544983369474949, 0), (0, 0.18, 0, 0), (0.16363106290659316, 0, 0.07499919370607003, 0), (0.6116641163825989, 0, 1.4963757991790771, 1) ),
            119: ( (0.48838831584944276, 0, -1.5236393332476839, 0), (0, 0.18, 0, 0), (0.1714094249903644, 0, 0.05494368553306231, 0), (0.4690794348716736, 0, 1.4532697200775146, 1) ),
            120: ( (0.2961971778066072, 0, -1.5723444577123702, 0), (0, 0.18, 0, 0), (0.17688875149264163, 0, 0.033322182503243314, 0), (0.32159483432769775, 0, 1.4224579334259033, 1) ),
            121: ( (0.09646228525962215, 0, -1.597089535086343, 0), (0, 0.18, 0, 0), (0.17967257269721357, 0, 0.010852007091707491, 0), (0.17071211338043213, 0, 1.4053529500961304, 1) ),
            122: ( (-0.10332048160436216, 0, -1.5966605571744141, 0), (0, 0.18, 0, 0), (0.17962431268212156, 0, -0.011623554180490742, 0), (0.01818734221160412, 0, 1.4024224281311035, 1) ),
            123: ( (-0.29582591912113687, 0, -1.572414599898707, 0), (0, 0.18, 0, 0), (0.1768966424886045, 0, -0.033280415901127895, 0), (-0.1341823935508728, 0, 1.4131183624267578, 1) ),
            124: ( (-0.4750575333833695, 0, -1.5278484232490883, 0), (0, 0.18, 0, 0), (0.17188294761552242, 0, -0.05344397250562906, 0), (-0.28476518392562866, 0, 1.43608820438385, 1) ),
            125: ( (-0.6369546542559079, 0, -1.467749501617425, 0), (0, 0.18, 0, 0), (0.1651218189319603, 0, -0.07165739860378963, 0), (-0.43221184611320496, 0, 1.469538688659668, 1) ),
            126: ( (-0.7794058788840744, 0, -1.3973284282040481, 0), (0, 0.18, 0, 0), (0.15719944817295542, 0, -0.08768316137445836, 0), (-0.5754704475402832, 0, 1.5115731954574585, 1) ),
            127: ( (-0.9019134944760027, 0, -1.3215718036869477, 0), (0, 0.18, 0, 0), (0.1486768279147816, 0, -0.10146526812855029, 0), (-0.7137368321418762, 0, 1.5604057312011719, 1) ),
            128: ( (-1.0051520326804622, 0, -1.2448578301300133, 0), (0, 0.18, 0, 0), (0.14004650588962647, 0, -0.11307960367655198, 0), (-0.8463854193687439, 0, 1.6144565343856812, 1) ),
            129: ( (-1.0905488456045647, 0, -1.1707701860779083, 0), (0, 0.18, 0, 0), (0.13171164593376467, 0, -0.12268674513051352, 0), (-0.9729063510894775, 0, 1.6723710298538208, 1) ),
            130: ( (-1.1599515281294885, 0, -1.102049319661279, 0), (0, 0.18, 0, 0), (0.12398054846189388, 0, -0.13049454691456744, 0), (-1.0928601026535034, 0, 1.7329938411712646, 1) ),
            131: ( (-1.2153703379859508, 0, -1.0406129357439569, 0), (0, 0.18, 0, 0), (0.11706895527119514, 0, -0.13672916302341945, 0), (-1.2058508396148682, 0, 1.7953314781188965, 1) ),
            132: ( (-1.2588037110625465, 0, -0.9876302446397063, 0), (0, 0.18, 0, 0), (0.11110840252196695, 0, -0.14161541749453646, 0), (-1.3115133047103882, 0, 1.8585114479064941, 1) ),
            133: ( (-1.2921283702180633, 0, -0.9436119764901889, 0), (0, 0.18, 0, 0), (0.10615634735514624, 0, -0.14536444164953208, 0), (-1.4095159769058228, 0, 1.9217454195022583, 1) ),
            134: ( (-1.3170425330792683, 0, -0.9085156325833736, 0), (0, 0.18, 0, 0), (0.10220800866562953, 0, -0.14816728497141768, 0), (-1.499571681022644, 0, 1.9842979907989502, 1) ),
            135: ( (-1.3350434439885364, 0, -0.8818504548756153, 0), (0, 0.18, 0, 0), (0.0992081761735067, 0, -0.1501923874487103, 0), (-1.5814563035964966, 0, 2.0454626083374023, 1) ),
            136: ( (-1.3474373689825372, 0, -0.8627935545648143, 0), (0, 0.18, 0, 0), (0.09706427488854161, 0, -0.1515867040105354, 0), (-1.655029296875, 0, 2.104541063308716, 1) ),
            137: ( (-1.355362303633774, 0, -0.8502903101676567, 0), (0, 0.18, 0, 0), (0.09565765989386137, 0, -0.15247825915879956, 0), (-1.720254898071289, 0, 2.160836696624756, 1) ),
            138: ( (-1.359806044475056, 0, -0.8431658181513001, 0), (0, 0.18, 0, 0), (0.09485615454202126, 0, -0.15297818000344376, 0), (-1.777214527130127, 0, 2.2136480808258057, 1) ),
            139: ( (-1.361625284309787, 0, -0.840224138664712, 0), (0, 0.18, 0, 0), (0.0945252155997801, 0, -0.153182844484851, 0), (-1.8261078596115112, 0, 2.2622764110565186, 1) ),
            140: ( (-1.3615577591701482, 0, -0.8403336458198396, 0), (0, 0.18, 0, 0), (0.09453753515473196, 0, -0.15317524790664167, 0), (-1.8672422170639038, 0, 2.3060386180877686, 1) ),
            141: ( (-1.3602242953983592, 0, -0.8424906733122782, 0), (0, 0.18, 0, 0), (0.0947802007476313, 0, -0.1530252332323154, 0), (-1.901004672050476, 0, 2.3442881107330322, 1) ),
            142: ( (-1.3581340698169813, 0, -0.8458553780838373, 0), (0, 0.18, 0, 0), (0.09515873003443168, 0, -0.15279008285441037, 0), (-1.9278242588043213, 0, 2.3764352798461914, 1) ),
            143: ( (-1.3556896849868396, 0, -0.8497685040468298, 0), (0, 0.18, 0, 0), (0.09559895670526834, 0, -0.15251508956101942, 0), (-1.9481295347213745, 0, 2.401968479156494, 1) ),
            144: ( (-1.3531906077763893, 0, -0.8537416982220123, 0), (0, 0.18, 0, 0), (0.09604594104997638, 0, -0.15223394337484378, 0), (-1.9623085260391235, 0, 2.4204721450805664, 1) ),
            145: ( (-1.350850468618046, 0, -0.8574409352567045, 0), (0, 0.18, 0, 0), (0.09646210521637925, 0, -0.15197067771953016, 0), (-1.970672369003296, 0, 2.431635856628418, 1) ),
            146: ( (-1.3487987099230396, 0, -0.8606639903774749, 0), (0, 0.18, 0, 0), (0.09682469891746592, 0, -0.15173985486634195, 0), (-1.9734300374984741, 0, 2.4352657794952393, 1) ),
            147: ( (-1.3470961676452136, 0, -0.8633258723580184, 0), (0, 0.18, 0, 0), (0.09712416064027707, 0, -0.15154831886008652, 0), (-1.9706701040267944, 0, 2.431285858154297, 1) ),
            148: ( (-1.345735585804971, 0, -0.86544545333756, 0), (0, 0.18, 0, 0), (0.09736261350047548, 0, -0.15139525340305923, 0), (-1.962355613708496, 0, 2.4197425842285156, 1) ),
            149: ( (-1.344639149618172, 0, -0.867148343344934, 0), (0, 0.18, 0, 0), (0.09755418862630506, 0, -0.15127190433204432, 0), (-1.9483263492584229, 0, 2.4008023738861084, 1) ),
            150: ( (-1.3436486533131757, 0, -0.8686822026515983, 0), (0, 0.18, 0, 0), (0.09772674779830481, 0, -0.15116047349773226, 0), (-1.9283095598220825, 0, 2.374753713607788, 1) ),
            151: ( (-1.342518586045037, 0, -0.870427209645726, 0), (0, 0.18, 0, 0), (0.09792306108514416, 0, -0.15103334093006665, 0), (-1.9019442796707153, 0, 2.341999053955078, 1) ),
            152: ( (-1.3409005056423782, 0, -0.8729187209400209, 0), (0, 0.18, 0, 0), (0.09820335610575234, 0, -0.15085130688476753, 0), (-1.8688113689422607, 0, 2.3030500411987305, 1) ),
            153: ( (-1.338325442725909, 0, -0.8768604458290611, 0), (0, 0.18, 0, 0), (0.09864680015576936, 0, -0.15056161230666476, 0), (-1.8284703493118286, 0, 2.2585082054138184, 1) ),
            154: ( (-1.3342054232506713, 0, -0.8831171048019656, 0), (0, 0.18, 0, 0), (0.09935067429022111, 0, -0.1500981101157005, 0), (-1.7805057764053345, 0, 2.2090508937835693, 1) ),
            155: ( (-1.3278204531192388, 0, -0.8926897169561698, 0), (0, 0.18, 0, 0), (0.1004275931575691, 0, -0.14937980097591436, 0), (-1.724564790725708, 0, 2.1554064750671387, 1) ),
            156: ( (-1.318317420858614, 0, -0.9066644463439388, 0), (0, 0.18, 0, 0), (0.10199975021369312, 0, -0.14831070984659406, 0), (-1.6603926420211792, 0, 2.0983314514160156, 1) ),
            157: ( (-1.3047105654171902, 0, -0.9261375357891666, 0), (0, 0.18, 0, 0), (0.10419047277628124, 0, -0.1467799386094339, 0), (-1.5878534317016602, 0, 2.0385913848876953, 1) ),
            158: ( (-1.2858748646609912, 0, -0.9521171453600914, 0), (0, 0.18, 0, 0), (0.10711317885301028, 0, -0.1446609222743615, 0), (-1.506937861442566, 0, 1.9769498109817505, 1) ),
            159: ( (-1.2605328565067908, 0, -0.9854219646526303, 0), (0, 0.18, 0, 0), (0.1108599710234209, 0, -0.14180994635701394, 0), (-1.4177541732788086, 0, 1.9141623973846436, 1) ),
            160: ( (-1.227253565847059, 0, -1.0265713945532298, 0), (0, 0.18, 0, 0), (0.11548928188723834, 0, -0.13806602615779412, 0), (-1.3205140829086304, 0, 1.8509833812713623, 1) ),
            161: ( (-1.1844489420664217, 0, -1.075677514801896, 0), (0, 0.18, 0, 0), (0.1210137204152133, 0, -0.13325050598247246, 0), (-1.215511441230774, 0, 1.7881808280944824, 1) ),
            162: ( (-1.1303991137405434, 0, -1.1323419814547493, 0), (0, 0.18, 0, 0), (0.1273884729136593, 0, -0.1271699002958111, 0), (-1.1031044721603394, 0, 1.7265543937683105, 1) ),
            163: ( (-1.0633101485422345, 0, -1.1955636529214757, 0), (0, 0.18, 0, 0), (0.134500910953666, 0, -0.11962239171100136, 0), (-0.9837008118629456, 0, 1.6669654846191406, 1) ),
            164: ( (-0.981414721750673, 0, -1.263655634051645, 0), (0, 0.18, 0, 0), (0.14216125883081004, 0, -0.1104091561969507, 0), (-0.8577542901039124, 0, 1.610364556312561, 1) ),
            165: ( (-0.8831276764694054, 0, -1.3341986280361255, 0), (0, 0.18, 0, 0), (0.1500973456540641, 0, -0.0993518636028081, 0), (-0.7257705330848694, 0, 1.5578242540359497, 1) ),
            166: ( (-0.7672699458839362, 0, -1.4040288492198671, 0), (0, 0.18, 0, 0), (0.15795324553723503, 0, -0.0863178689119428, 0), (-0.5883291363716125, 0, 1.5105674266815186, 1) ),
            167: ( (-0.6333491768311433, 0, -1.4693091134513907, 0), (0, 0.18, 0, 0), (0.16529727526328145, 0, -0.07125178239350362, 0), (-0.44611915946006775, 0, 1.469977855682373, 1) ),
            168: ( (-0.4818915687769845, 0, -1.525707074211698, 0), (0, 0.18, 0, 0), (0.171642045848816, 0, -0.054212801487410756, 0), (-0.2999860942363739, 0, 1.4375773668289185, 1) ),
            169: ( (-0.3147741725519609, 0, -1.5687313317707094, 0), (0, 0.18, 0, 0), (0.1764822748242048, 0, -0.0354120944120956, 0), (-0.15098313987255096, 0, 1.4149445295333862, 1) ),
            170: ( (-0.1354534943537601, 0, -1.5942561292283928, 0), (0, 0.18, 0, 0), (0.17935381453819416, 0, -0.015238518114798011, 0), (-0.00040252887993119657, 0, 1.403548240661621, 1) ),
            171: ( (0.05107616134514501, 0, -1.599184667533109, 0), (0, 0.18, 0, 0), (0.17990827509747476, 0, 0.005746068151328813, 0), (0.15024104714393616, 0, 1.4045064449310303, 1) ),
            172: ( (0.23872186464249126, 0, -1.5820910337717464, 0), (0, 0.18, 0, 0), (0.17798524129932147, 0, 0.026856209772280266, 0), (0.2992980480194092, 0, 1.4183231592178345, 1) ),
            173: ( (0.42113271599514523, 0, -1.5435826631218335, 0), (0, 0.18, 0, 0), (0.17365304960120626, 0, 0.047377430549453835, 0), (0.4451386630535126, 0, 1.444717526435852, 1) ),
            174: ( (0.5926606293851251, 0, -1.486187717060068, 0), (0, 0.18, 0, 0), (0.1671961181692576, 0, 0.06667432080582657, 0), (0.586319088935852, 0, 1.4826397895812988, 1) ),
            175: ( (0.7490920734939209, 0, -1.4138109162775891, 0), (0, 0.18, 0, 0), (0.15905372808122875, 0, 0.0842728582680661, 0), (0.7216969132423401, 0, 1.5304678678512573, 1) ),
            176: ( (0.8879303546731535, 0, -1.3310069932296758, 0), (0, 0.18, 0, 0), (0.1497382867383385, 0, 0.09989216490072976, 0), (0.8504616618156433, 0, 1.5862826108932495, 1) ),
            177: ( (1.0082733943154267, 0, -1.242330463308315, 0), (0, 0.18, 0, 0), (0.13976217712218542, 0, 0.1134307568604855, 0), (0.9720969796180725, 0, 1.648116946220398, 1) ),
            178: ( (1.1104715469635693, 0, -1.1518910760138226, 0), (0, 0.18, 0, 0), (0.12958774605155504, 0, 0.12492804903340154, 0), (1.0863146781921387, 0, 1.714116096496582, 1) ),
            179: ( (1.195726704335857, 0, -1.0631264691953675, 0), (0, 0.18, 0, 0), (0.11960172778447883, 0, 0.1345192542377839, 0), (1.1929821968078613, 0, 1.7826155424118042, 1) ),
            180: ( (1.2657385280162516, 0, -0.978726785438181, 0), (0, 0.18, 0, 0), (0.11010676336179535, 0, 0.14239558440182828, 0), (1.2920687198638916, 0, 1.8521584272384644, 1) ),
            181: ( (1.3224274302371641, 0, -0.9006585795661692, 0), (0, 0.18, 0, 0), (0.10132409020119404, 0, 0.14877308590168095, 0), (1.38360595703125, 0, 1.9214816093444824, 1) ),
        }
        uniform token[] xformOpOrder = ["xformOp:transform"]
    }
}
